<svg width="220" height="68" viewBox="0 0 220 68" fill="none" xmlns="http://www.w3.org/2000/svg">
<path d="M191.003 12.0391L192.384 8.97071L195.424 7.57777L192.384 6.18482L191.003 3.10791L189.619 6.17352L186.571 7.57777L189.611 8.97071L191.003 12.0391ZM205.086 18.6055L202.125 12.0391L199.177 18.6055L192.656 21.592L199.177 24.5813L202.136 31.1505L205.086 24.5813L211.596 21.5976L205.086 18.6055ZM206.016 35.0185L204.27 38.8894L200.432 40.6468L204.27 42.407L206.016 46.2779L207.758 42.407L211.596 40.6468L207.758 38.8894L206.016 35.0185Z" fill="#0D4261"/>
<path d="M172.209 61.2755C172.042 61.17 171.847 61.1201 171.651 61.1328C171.455 61.1455 171.268 61.2201 171.116 61.3461C170.966 61.4703 170.857 61.6378 170.804 61.8262C170.751 62.0145 170.756 62.2147 170.819 62.4C170.856 62.5726 170.956 62.7249 171.099 62.8266C171.26 62.9496 171.458 63.0152 171.66 63.0131C171.867 63.0189 172.07 62.9568 172.239 62.836C172.409 62.7153 172.535 62.5425 172.598 62.3435C172.61 62.3097 172.619 62.2746 172.623 62.2389C172.653 62.0552 172.63 61.8667 172.556 61.6959C172.483 61.525 172.362 61.3791 172.209 61.2755Z" fill="#8A1538"/>
<path d="M182.089 29.4638C181.844 28.8763 181.49 28.3412 181.047 27.8872C180.858 27.6969 180.643 27.5351 180.408 27.4068C180.359 27.3758 180.303 27.3582 180.246 27.356C179.832 27.3316 179.418 27.3486 179.008 27.4068C178.965 27.4111 178.922 27.4111 178.879 27.4068C178.646 27.4063 178.414 27.4243 178.184 27.4605C178.035 27.4859 177.881 27.4859 177.73 27.4973C177.687 27.49 177.644 27.49 177.601 27.4973C177.47 27.5394 177.333 27.5595 177.195 27.5566C176.992 27.5537 176.79 27.5765 176.593 27.6244C176.564 27.6289 176.535 27.6289 176.506 27.6244L175.839 27.6979C175.615 27.7069 175.392 27.7343 175.172 27.7798C175.137 27.7827 175.101 27.7827 175.066 27.7798C175.015 27.7816 174.965 27.7863 174.915 27.7939C174.607 27.8391 174.298 27.8872 173.99 27.9295C173.768 27.963 173.552 28.0286 173.349 28.1245C173.2 28.1856 173.073 28.2924 172.987 28.4297C172.901 28.567 172.86 28.7281 172.87 28.8902C172.868 29.0508 172.885 29.211 172.92 29.3677C172.937 29.4611 172.948 29.5555 172.954 29.6502C172.985 29.9328 173.018 30.2153 173.052 30.5205C173.051 30.5346 173.051 30.5488 173.052 30.5629C173.069 30.6787 173.088 30.7917 173.102 30.9076C173.139 31.1901 173.172 31.4727 173.206 31.7552C173.206 31.7835 173.22 31.8117 173.226 31.8428L173.259 32.0349C173.293 32.2751 173.324 32.5124 173.357 32.7498C173.377 32.8939 173.396 33.0323 173.419 33.182C173.42 33.2801 173.443 33.3766 173.486 33.4646C173.545 33.4646 173.545 33.4137 173.548 33.3798C173.548 33.0973 173.548 32.8147 173.581 32.5322C173.615 32.2497 173.601 31.9925 173.612 31.7213C173.609 31.678 173.609 31.6346 173.612 31.5913C173.626 31.4896 173.646 31.3879 173.651 31.289C173.671 31.0065 173.671 31.0065 173.931 30.8737L174.01 30.8369L174.89 30.4583L175.212 30.3255C175.243 30.3255 175.282 30.2973 175.307 30.3594C175.14 30.4826 174.991 30.6302 174.867 30.7974C174.734 30.9754 174.634 31.1765 174.573 31.3907C174.617 31.4009 174.662 31.4066 174.707 31.4077C174.89 31.4077 175.069 31.3709 175.248 31.3568C175.414 31.3374 175.583 31.3508 175.744 31.3964C175.828 31.4182 175.915 31.4286 176.002 31.4274L178.394 31.4444C178.554 31.4444 178.713 31.4444 178.873 31.4161C179.033 31.3879 179.131 31.3766 179.257 31.3568C179.383 31.337 179.517 31.3229 179.643 31.2975C179.829 31.2625 180.019 31.2625 180.204 31.2975C180.358 31.3257 180.509 31.3766 180.663 31.4133C180.693 31.4278 180.726 31.4326 180.759 31.427C180.792 31.4215 180.822 31.4058 180.845 31.3822C180.841 31.3096 180.818 31.2393 180.778 31.1788C180.541 30.7073 180.191 30.3024 179.761 30.0006C179.585 29.8696 179.398 29.7551 179.201 29.6587C178.864 29.4848 178.503 29.3611 178.131 29.2914C178.167 29.2741 178.204 29.2608 178.243 29.2519C178.391 29.2292 178.543 29.2066 178.694 29.1897C178.845 29.1727 178.974 29.1897 179.128 29.1614C179.59 29.1074 180.057 29.1419 180.506 29.2632C180.604 29.2886 180.702 29.3197 180.786 29.3507C181.294 29.5046 181.776 29.7331 182.218 30.0288C182.263 30.0527 182.311 30.0717 182.361 30.0854C182.327 29.9808 182.313 29.9271 182.291 29.8763C182.243 29.752 182.165 29.6107 182.089 29.4638Z" fill="#8A1538"/>
<path d="M197.264 40.1889C197.265 40.0836 197.256 39.9786 197.236 39.8752C197.248 39.7663 197.248 39.6564 197.236 39.5475V39.5333C197.236 39.4203 197.236 39.3073 197.216 39.1943V39.0587C197.212 38.8855 197.197 38.7128 197.172 38.5416C197.156 38.4576 197.146 38.3727 197.141 38.2873C197.138 38.1925 197.128 38.098 197.11 38.0048L197.057 37.6544V37.6346C197.049 37.5196 197.029 37.4058 196.995 37.2956C196.995 37.2673 196.978 37.1854 196.97 37.1261C196.954 36.9582 196.925 36.7919 196.883 36.6288C196.883 36.5779 196.858 36.496 196.844 36.4084C196.83 36.3208 196.81 36.1852 196.782 36.0552C196.681 35.606 196.575 35.1539 196.463 34.7075C196.373 34.343 196.267 33.9644 196.144 33.5604C195.844 33.2073 195.575 32.8292 195.34 32.4302C194.758 31.4999 194.231 30.5357 193.762 29.5426C193.774 29.6012 193.779 29.6608 193.779 29.7206C193.746 29.6669 193.709 29.616 193.681 29.5595C193.435 29.0735 193.185 28.5847 192.942 28.0959C192.748 27.7117 192.552 27.3274 192.364 26.9403C192.02 26.2142 191.659 25.4994 191.339 24.7619C190.921 23.79 190.516 22.8133 190.123 21.8319C189.824 21.0888 189.513 20.3486 189.205 19.6055C189.076 19.289 188.941 18.9726 188.815 18.6533C188.754 18.4979 188.7 18.3397 188.644 18.1815C188.633 18.1582 188.63 18.1321 188.635 18.1068C188.639 18.0815 188.651 18.0582 188.669 18.0402C188.905 17.7807 189.069 17.4629 189.143 17.1191C189.199 16.9205 189.199 16.7102 189.143 16.5116C189.052 16.2182 188.903 15.9462 188.706 15.712C188.683 15.684 188.661 15.6548 188.641 15.6244C188.619 15.5905 188.606 15.5519 188.601 15.5116C188.597 15.4714 188.602 15.4306 188.616 15.3927C188.653 15.2825 188.672 15.1667 188.703 15.0565C188.754 14.8419 188.754 14.6184 188.703 14.4038C188.668 14.1796 188.571 13.97 188.423 13.7992C188.359 13.7314 188.288 13.6692 188.221 13.6014C188.177 13.5638 188.138 13.52 188.106 13.4714C187.957 13.2091 187.735 12.9961 187.468 12.8583C187.171 12.6916 186.868 12.539 186.56 12.3893C186.107 12.174 185.639 11.9936 185.159 11.8496C184.904 11.7705 184.641 11.7112 184.381 11.649C184.263 11.6208 184.14 11.6066 184.019 11.5784C183.971 11.5666 183.928 11.5399 183.896 11.5021C183.756 11.3128 181.341 9.52429 181.215 9.448C180.578 9.02157 179.918 8.63197 179.237 8.28109C178.764 8.0381 178.257 7.80924 177.691 7.58603C177.01 7.30723 176.31 7.07963 175.595 6.9051L175.444 6.86837L175.164 6.80338L175.044 6.77795C174.881 6.74122 174.716 6.70449 174.531 6.67624C174.346 6.64798 174.114 6.61408 173.915 6.58865L173.668 6.55474L173.553 6.54062L173.273 6.50106C173.206 6.50106 173.136 6.48693 173.069 6.48411H172.959C172.747 6.43497 172.53 6.41314 172.312 6.41912H171.612C171.107 6.40511 170.602 6.4202 170.099 6.46433C169.951 6.46433 169.794 6.48693 169.626 6.49541L169.315 6.49823C169.214 6.49823 169.13 6.52084 169.071 6.52931L168.315 6.65646L168.141 6.68189C167.995 6.70449 167.83 6.72992 167.662 6.76665C167.435 6.81468 167.217 6.87119 167.006 6.92488L166.788 6.98139C166.067 7.16341 165.361 7.39952 164.676 7.68775C164.177 7.894 163.737 8.09461 163.334 8.29804C162.774 8.58059 159.314 10.8975 158.955 11.2365C158.876 11.3114 158.802 11.3907 158.731 11.4738C158.687 11.5293 158.626 11.5682 158.558 11.584C158.006 11.6716 157.465 11.8135 156.941 12.0079C156.622 12.1237 156.297 12.2254 155.989 12.3723C155.678 12.5099 155.374 12.6637 155.078 12.8329C154.847 12.972 154.647 13.1576 154.49 13.3782C154.408 13.4996 154.314 13.6123 154.21 13.7144C154.085 13.8373 153.989 13.987 153.93 14.1524C153.878 14.3038 153.835 14.4586 153.804 14.6157C153.797 14.6436 153.797 14.6726 153.804 14.7005C153.865 14.9491 153.804 15.2147 153.91 15.4549C153.924 15.489 153.927 15.5264 153.921 15.5625C153.914 15.5986 153.896 15.6319 153.871 15.6583C153.778 15.7826 153.683 15.9013 153.591 16.0313C153.456 16.2223 153.37 16.4442 153.341 16.677C153.312 16.9098 153.341 17.1463 153.425 17.3649C153.498 17.5482 153.58 17.7274 153.672 17.9017C153.702 17.951 153.739 17.9957 153.781 18.0345C153.805 18.0576 153.82 18.0879 153.824 18.1206C153.829 18.1533 153.823 18.1866 153.806 18.2154C153.728 18.3877 153.65 18.5629 153.58 18.7381C153.313 19.402 153.053 20.066 152.79 20.73L152.229 22.0919C152.003 22.6457 151.775 23.1985 151.546 23.7504C151.355 24.2025 151.159 24.6489 150.966 25.0981C150.831 25.4033 150.7 25.7141 150.56 26.0192C150.448 26.2651 150.33 26.5052 150.212 26.7482C149.887 27.4094 149.561 28.0686 149.235 28.726L148.974 29.2374C148.476 30.3393 147.903 31.4052 147.26 32.4273C146.972 32.9261 146.626 33.3881 146.229 33.8033L146.164 34.0266C146.147 34.0802 146.133 34.1367 146.117 34.1904C146.061 34.3797 145.999 34.5945 145.951 34.8233C145.951 34.8827 145.923 34.9392 145.909 34.9985C145.895 35.0578 145.856 35.2076 145.834 35.3319C145.834 35.4025 145.806 35.4675 145.789 35.5382C145.746 35.6931 145.713 35.8507 145.691 36.01C145.691 36.0383 145.674 36.0665 145.668 36.0948C145.652 36.1795 145.635 36.2671 145.621 36.3491C145.621 36.3801 145.621 36.4141 145.607 36.448C145.561 36.614 145.534 36.7845 145.526 36.9565C145.477 37.1238 145.45 37.2966 145.444 37.4708C145.397 37.6459 145.369 37.8261 145.363 38.0076C145.362 38.0321 145.362 38.0566 145.363 38.0811C145.362 38.0961 145.362 38.1112 145.363 38.1263C145.31 38.3328 145.285 38.5458 145.29 38.7592C145.29 38.8805 145.279 39.0016 145.257 39.1208C145.227 39.2791 145.212 39.44 145.212 39.6012V40.1662C145.212 40.7709 145.192 41.3953 145.229 42.0339V42.0989C145.234 42.2767 145.257 42.4537 145.296 42.6272C145.294 42.6554 145.294 42.6837 145.296 42.712L145.31 42.8646L145.385 43.65C145.396 43.7549 145.419 43.8582 145.453 43.958C145.449 44.1316 145.479 44.3042 145.54 44.4666C145.54 44.4864 145.54 44.5061 145.54 44.5259C145.553 44.7093 145.588 44.8904 145.643 45.0656C145.646 45.0862 145.646 45.1071 145.643 45.1277C145.643 45.1786 145.663 45.2323 145.674 45.286C145.685 45.3396 145.71 45.4527 145.733 45.5374C145.755 45.6222 145.761 45.6533 145.772 45.7098V45.7352C145.806 45.9019 145.842 46.0658 145.881 46.2325C145.921 46.3992 145.946 46.4868 145.979 46.6111L146.044 46.8513C146.072 46.9614 146.1 47.0716 146.131 47.179C146.205 47.4404 146.37 47.6661 146.596 47.8147C146.73 47.9136 146.886 47.9798 147.05 48.0082C147.214 48.0366 147.383 48.0265 147.543 47.9786C147.706 47.9288 147.857 47.8419 147.982 47.7243C148 47.8447 148.027 47.9636 148.061 48.0803C148.061 48.1086 148.078 48.134 148.083 48.1566C148.114 48.3628 148.162 48.566 148.226 48.7641L148.254 48.8714C148.274 48.9364 148.293 49.0042 148.31 49.0721C148.377 49.315 148.445 49.5637 148.537 49.8236C148.705 50.2898 148.904 50.838 149.128 51.3748C149.485 52.2242 149.901 53.0466 150.375 53.8358C150.936 54.7768 151.569 55.6732 152.266 56.5171C152.351 56.6248 152.451 56.7199 152.563 56.7996C152.759 56.9351 152.991 57.007 153.229 57.0059H153.255C153.237 57.1671 153.254 57.3304 153.305 57.4841C153.356 57.6379 153.441 57.7785 153.551 57.8959L153.588 57.9327L153.714 58.0598L153.907 58.2406C154.123 58.4509 154.35 58.649 154.588 58.834C154.75 58.9611 154.916 59.0939 155.089 59.2352C155.263 59.3765 155.37 59.464 155.507 59.5771C155.907 59.8907 156.347 60.2071 156.924 60.5773C157.381 60.8598 157.835 61.1424 158.219 61.3712C158.499 61.5407 158.798 61.7074 159.16 61.8996C159.44 62.0493 159.821 62.2471 160.213 62.4336C160.605 62.6201 160.947 62.7642 161.292 62.9083C161.636 63.0524 162.009 63.2049 162.39 63.3519C162.524 63.4027 162.653 63.4479 162.776 63.4875L163.057 63.592C163.44 63.7389 163.816 63.8463 164.177 63.948L164.387 64.0074C164.685 64.0992 164.988 64.1728 165.295 64.2277C165.334 64.2277 165.398 64.2504 165.466 64.2673C165.632 64.3164 165.803 64.3504 165.976 64.369L166.051 64.386L166.166 64.4086L166.704 64.5075L166.948 64.5442L167.082 64.564L167.435 64.6233L167.715 64.6685C167.773 64.6787 167.831 64.6854 167.889 64.6883H168.037L168.368 64.7194H168.612C168.758 64.7192 168.903 64.6894 169.037 64.6318C169.171 64.7181 169.321 64.7749 169.477 64.7985H169.505C169.598 64.816 169.691 64.8264 169.785 64.8296H170.713H170.76H172.441H173.038C173.105 64.8296 173.169 64.8296 173.234 64.8296C173.469 64.8201 173.697 64.748 173.895 64.6205C174.036 64.6851 174.189 64.7188 174.343 64.7194H174.43L174.643 64.7024C174.828 64.6883 175.018 64.6742 175.203 64.6544C175.388 64.6346 175.483 64.612 175.618 64.5894L175.73 64.5668C175.788 64.5571 175.845 64.5439 175.901 64.5272L175.993 64.5046C176.099 64.4991 176.205 64.482 176.307 64.4538C176.408 64.4227 176.534 64.4001 176.666 64.3747C176.87 64.3418 177.072 64.2965 177.271 64.239L177.422 64.208C177.514 64.191 177.629 64.1684 177.753 64.1373C177.996 64.0695 178.232 63.9961 178.461 63.9254L178.655 63.8661L178.839 63.8124C179.03 63.7559 179.226 63.6966 179.431 63.6231C179.859 63.4705 180.271 63.3066 180.582 63.1823C180.983 63.0241 181.333 62.8772 181.658 62.7331C182.322 62.4505 182.957 62.1143 183.49 61.8318C184.022 61.5492 184.652 61.1819 185.344 60.7411C185.714 60.5095 186.064 60.2636 186.406 60.0263L186.512 59.95C186.793 59.7494 187.089 59.546 187.378 59.3115C187.667 59.077 188.017 58.769 188.319 58.5034L188.529 58.3197C188.655 58.2095 188.765 58.0965 188.857 58.0005L188.891 57.9666C189.013 57.8418 189.107 57.6913 189.165 57.5257C189.223 57.3601 189.245 57.1835 189.227 57.0087C189.508 56.992 189.774 56.8713 189.972 56.6697C190.014 56.6245 190.053 56.5793 190.093 56.5312L190.126 56.4945C190.348 56.2587 190.552 56.0066 190.737 55.7401L190.894 55.5282C191.174 55.1383 191.454 54.7427 191.703 54.3585C191.919 54.0307 192.11 53.7227 192.28 53.4176C192.553 52.9435 192.802 52.456 193.026 51.9568C193.244 51.468 193.474 50.9368 193.662 50.3774C193.779 50.0242 193.897 49.6484 194.034 49.1935C194.11 48.9477 194.169 48.7047 194.227 48.4561C194.241 48.3911 194.255 48.329 194.267 48.264C194.464 48.4439 194.72 48.5444 194.987 48.5465C195.044 48.5507 195.102 48.5507 195.16 48.5465C195.347 48.5157 195.523 48.4362 195.671 48.3158C195.818 48.1954 195.932 48.0383 196.001 47.8599V47.8289C196.026 47.7667 196.051 47.7045 196.071 47.6452L196.172 47.3146L196.202 47.2129L196.264 47.0095C196.314 46.8428 196.368 46.6704 196.418 46.4868C196.499 46.1844 196.583 45.8539 196.656 45.512V45.4357C196.679 45.3227 196.701 45.2181 196.726 45.1249C196.751 45.0317 196.777 44.9017 196.796 44.8056C196.816 44.7096 196.824 44.6474 196.835 44.5683V44.5118C196.881 44.343 196.915 44.1711 196.936 43.9976C196.936 43.9467 196.936 43.893 196.959 43.8422C196.981 43.7255 196.997 43.6075 197.006 43.489C197.006 43.4607 197.006 43.424 197.006 43.4014C197.048 43.2746 197.068 43.142 197.068 43.0086V42.8702C197.068 42.7911 197.068 42.7148 197.085 42.6639C197.127 42.3709 197.153 42.0756 197.16 41.7796C197.16 41.6892 197.16 41.5987 197.16 41.497C197.183 41.1608 197.18 40.8359 197.177 40.5251L197.264 40.1889ZM158.997 12.9148C159.592 12.3052 160.221 11.7298 160.88 11.1913C161.36 10.8014 161.864 10.4428 162.39 10.1176C162.858 9.83509 163.331 9.55254 163.824 9.2926C164.239 9.08352 164.665 8.89421 165.093 8.72751C165.73 8.45987 166.385 8.24075 167.054 8.07201C167.334 8.00137 167.614 7.92508 167.895 7.86293C168.093 7.82054 168.295 7.79794 168.494 7.76403L169.22 7.64537C169.278 7.64537 169.334 7.62276 169.393 7.61711C169.673 7.60016 169.954 7.59168 170.214 7.56343C170.903 7.49279 171.592 7.53517 172.279 7.52387C172.409 7.52079 172.54 7.53312 172.668 7.5606C172.811 7.58525 172.955 7.60129 173.099 7.60864C173.228 7.62276 173.357 7.64254 173.486 7.65949C173.766 7.69622 174.046 7.73013 174.326 7.77534C174.52 7.80642 174.71 7.85162 174.901 7.89401C175.044 7.92226 175.181 7.95899 175.324 7.99007C175.986 8.15196 176.635 8.36448 177.265 8.6258C177.758 8.82075 178.243 9.03266 178.716 9.27565C180.056 9.96071 181.305 10.8152 182.431 11.8185C182.792 12.1237 183.126 12.4599 183.473 12.7792C183.722 13.0081 183.938 13.2624 184.165 13.5082C184.181 13.5282 184.195 13.55 184.207 13.5732C184.207 13.6381 184.145 13.641 184.103 13.6494L183.319 13.8133L183.168 13.8303C183.125 13.8275 183.082 13.8275 183.039 13.8303C182.809 13.867 182.582 13.9094 182.355 13.9489C182.291 13.9625 182.227 13.9719 182.162 13.9772C182.024 13.9748 181.887 13.9959 181.756 14.0393C181.741 14.0434 181.726 14.0434 181.711 14.0393C181.431 14.0393 181.151 14.1241 180.851 14.1326C180.677 14.1326 180.503 14.1693 180.333 14.1891C179.929 14.2315 179.529 14.2993 179.122 14.3049C178.98 14.3049 178.842 14.336 178.691 14.3501L178.237 14.3812C178.128 14.3754 178.019 14.3898 177.915 14.4236C177.875 14.4414 177.832 14.4482 177.789 14.4434C177.528 14.4372 177.267 14.4467 177.007 14.4716H176.789C176.71 14.4697 176.631 14.4763 176.554 14.4914C176.44 14.5167 176.325 14.5281 176.209 14.5253L174.338 14.5423C174.302 14.538 174.267 14.538 174.231 14.5423C174.017 14.5812 173.799 14.5936 173.581 14.579H169.231H168.951C168.893 14.5862 168.835 14.5862 168.777 14.579C168.5 14.5304 168.217 14.5181 167.937 14.5423C167.734 14.5498 167.531 14.5432 167.329 14.5225C167.112 14.5055 166.895 14.5055 166.679 14.5225C166.541 14.5296 166.404 14.5182 166.27 14.4886C166.183 14.4787 166.096 14.4787 166.009 14.4886C165.908 14.4886 165.805 14.4886 165.707 14.4886C165.485 14.4519 165.259 14.4405 165.034 14.4547H164.992C164.656 14.3756 164.314 14.4123 163.978 14.3643C163.732 14.3332 163.485 14.3304 163.241 14.3021C162.905 14.2654 162.566 14.223 162.23 14.1806C161.894 14.1382 161.594 14.1156 161.28 14.0704C160.967 14.0252 160.589 13.997 160.247 13.9292C160.011 13.8811 159.773 13.8613 159.538 13.8246C159.373 13.7992 159.21 13.7681 159.048 13.7342C158.885 13.7003 158.723 13.6551 158.563 13.6155C158.524 13.6035 158.485 13.5884 158.448 13.5703C158.636 13.3302 158.804 13.1098 158.997 12.9148ZM157.056 16.1217L157.658 16.1839L158.241 16.246C158.387 16.246 158.521 16.2771 158.675 16.2884L159.283 16.3251L159.454 16.3421L160.014 16.4071L160.185 16.4325C160.227 16.4325 160.269 16.4523 160.314 16.4579L161.572 16.5596L162.264 16.6246C162.348 16.6246 162.435 16.6246 162.521 16.6246C162.732 16.6221 162.942 16.6411 163.149 16.6811C163.25 16.6959 163.352 16.7034 163.454 16.7037C163.656 16.7037 163.858 16.7207 164.062 16.7348C164.603 16.7687 165.146 16.8083 165.69 16.8083C165.755 16.8013 165.821 16.8013 165.886 16.8083C166.086 16.8431 166.288 16.8582 166.491 16.8535C166.665 16.8535 166.838 16.8733 167.012 16.8817H167.141H168.424C168.526 16.8794 168.627 16.8898 168.727 16.9128C168.832 16.9386 168.94 16.9518 169.049 16.9524H173.618C173.697 16.9595 173.777 16.9595 173.856 16.9524C174.1 16.9152 174.346 16.8991 174.593 16.9044C174.957 16.9044 175.318 16.8846 175.68 16.8733C175.92 16.8733 176.159 16.8733 176.397 16.8563L176.766 16.8309L177.114 16.8083L177.954 16.7687H178.215L178.646 16.7348C178.834 16.7348 179.024 16.7348 179.206 16.7094C179.307 16.7094 179.408 16.6868 179.509 16.6783L180.069 16.6359L180.588 16.5879C180.666 16.5879 180.747 16.5625 180.826 16.5596C181.115 16.5498 181.404 16.5243 181.691 16.4834C181.871 16.4608 182.053 16.4608 182.232 16.4466L183.857 16.2969C184.137 16.2715 184.417 16.2488 184.697 16.2206L185.515 16.133C185.515 16.133 185.535 16.1471 185.552 16.1584C185.469 16.1978 185.382 16.229 185.294 16.2517C185.137 16.2771 185.014 16.3675 184.837 16.3788C184.767 16.3788 184.703 16.4325 184.633 16.4438C184.319 16.5031 184.016 16.5936 183.711 16.6755C183.537 16.7207 183.358 16.7405 183.179 16.7744L183.011 16.8111C182.96 16.8111 182.913 16.8394 182.862 16.8478C182.633 16.8817 182.403 16.9128 182.176 16.9496C181.949 16.9863 181.708 17.0343 181.473 17.0767C181.43 17.0795 181.387 17.0795 181.344 17.0767C181.294 17.0694 181.243 17.0694 181.193 17.0767C180.884 17.1756 180.557 17.1219 180.249 17.2152C180.191 17.2222 180.133 17.2222 180.075 17.2152L179.685 17.2519C179.535 17.2753 179.384 17.2904 179.232 17.2971C178.985 17.2971 178.744 17.3451 178.498 17.3621C178.397 17.3621 178.296 17.3819 178.195 17.3819C178.065 17.3686 177.933 17.384 177.809 17.4271C177.774 17.4386 177.738 17.4434 177.702 17.4412C177.463 17.4365 177.224 17.4544 176.988 17.4949C176.959 17.499 176.93 17.499 176.901 17.4949C176.7 17.4793 176.497 17.4907 176.299 17.5288H175.668C175.411 17.5782 175.148 17.5839 174.89 17.5457C174.847 17.5356 174.803 17.5356 174.761 17.5457C174.605 17.5856 174.444 17.5989 174.284 17.5853H169.934H168.362C168.305 17.5887 168.247 17.582 168.191 17.5655C168.074 17.5295 167.95 17.517 167.827 17.5288C167.712 17.5358 167.596 17.5358 167.48 17.5288C167.211 17.5081 166.942 17.5015 166.673 17.509C166.615 17.5132 166.557 17.5132 166.499 17.509C166.278 17.4751 166.053 17.4694 165.83 17.492C165.788 17.5021 165.743 17.5021 165.701 17.492C165.583 17.4549 165.46 17.4387 165.337 17.444C165.149 17.4525 164.961 17.4383 164.777 17.4016C164.633 17.3789 164.488 17.3676 164.342 17.3677L163.911 17.3253L163.499 17.2858C163.376 17.2858 163.253 17.266 163.132 17.2519L162.163 17.1332C162.104 17.1332 162.045 17.1332 161.989 17.1332C161.924 17.1335 161.859 17.1249 161.796 17.1078C161.679 17.0673 161.555 17.0491 161.432 17.0541H161.412C161.185 16.9948 160.953 16.9835 160.726 16.9467C160.448 16.8867 160.168 16.8424 159.885 16.8139C159.841 16.8123 159.798 16.8037 159.757 16.7885C159.666 16.7577 159.572 16.7387 159.476 16.732C159.308 16.7037 159.14 16.6557 158.972 16.619C158.804 16.5823 158.605 16.537 158.412 16.4918C158.219 16.4466 158.079 16.4042 157.91 16.3619L157.151 16.1726C157.106 16.1586 157.062 16.1416 157.02 16.1217C157.048 16.15 157.053 16.1358 157.056 16.1217ZM154.255 51.3889C154.246 51.3603 154.239 51.331 154.235 51.3013C154.255 50.999 154.131 50.7136 154.143 50.4113C154.147 50.3823 154.147 50.3528 154.143 50.3237C154.088 50.1493 154.063 49.9669 154.067 49.7841C154.071 49.755 154.071 49.7255 154.067 49.6965C154.015 49.5129 153.992 49.3222 154 49.1314C153.996 49.08 153.989 49.029 153.977 48.9788C153.961 48.8488 153.935 48.7189 153.927 48.5889C153.927 48.4428 153.907 48.2973 153.868 48.1566C153.847 48.0793 153.841 47.9989 153.848 47.9193C153.85 47.795 153.833 47.6711 153.798 47.552C153.776 47.4749 153.767 47.3947 153.77 47.3146C153.769 47.1825 153.754 47.0508 153.725 46.9219C153.703 46.8073 153.691 46.691 153.689 46.5744C153.693 46.4133 153.674 46.2525 153.633 46.0969C153.631 46.0903 153.631 46.0836 153.633 46.0771C153.633 45.7183 153.54 45.3679 153.529 45.0091C153.531 44.8411 153.515 44.6734 153.481 44.509C153.468 44.4371 153.461 44.3644 153.459 44.2914C153.459 44.0512 153.439 43.8111 153.403 43.5709C153.367 43.3307 153.375 43.0595 153.364 42.8052C153.364 42.7459 153.364 42.6865 153.364 42.63C153.313 42.2309 153.289 41.8288 153.291 41.4264C153.292 41.3388 153.278 41.2518 153.249 41.1693C153.229 41.1073 153.221 41.0422 153.224 40.9771C153.224 40.7568 153.224 40.5392 153.224 40.3188C153.232 40.2683 153.232 40.2167 153.224 40.1662C153.168 39.9776 153.145 39.7807 153.156 39.5842C153.149 39.4043 153.13 39.225 153.1 39.0474C153.1 39.1152 153.075 39.1858 153.07 39.2565C152.986 40.2199 152.974 41.1862 152.958 42.1497C152.958 42.9973 152.918 43.8619 152.918 44.718C152.918 45.1701 152.918 45.6222 152.918 46.0771V46.1195C152.972 47.018 152.972 47.9164 152.972 48.8178C152.97 48.8394 152.97 48.8611 152.972 48.8827C153.005 49.2094 153.011 49.5383 152.991 49.866C152.986 49.976 153 50.0861 153.033 50.1909C153.053 50.2607 153.059 50.3337 153.05 50.4057C153.03 50.7275 153.03 51.0502 153.05 51.372C153.05 51.5104 153.05 51.6545 153.05 51.7873C153.05 51.9201 153.078 52.0925 153.089 52.245C153.1 52.3976 153.103 52.5276 153.106 52.683C153.106 53.0616 153.126 53.443 153.137 53.8132C153.135 53.8282 153.135 53.8433 153.137 53.8584C153.183 54.0574 153.203 54.2615 153.199 54.4658C153.199 54.5958 153.229 54.7258 153.241 54.8586C153.252 54.9914 153.263 55.1637 153.274 55.3163L153.316 55.8418C153.316 55.8588 153.316 55.8927 153.291 55.8955C153.279 55.9011 153.265 55.904 153.252 55.904C153.238 55.904 153.225 55.9011 153.213 55.8955C153.179 55.8687 153.148 55.8373 153.123 55.8023C152.465 55.0009 151.868 54.1509 151.336 53.2594C150.889 52.5153 150.496 51.7401 150.159 50.9397C149.955 50.448 149.77 49.9479 149.599 49.445C149.495 49.1625 149.419 48.8601 149.338 48.5663C149.279 48.3813 149.231 48.1925 149.195 48.0012C149.142 47.8167 149.105 47.6275 149.086 47.4361C149.083 47.3996 149.075 47.3635 149.064 47.3288C149.052 47.3024 149.043 47.2749 149.036 47.2468C148.999 47.0151 148.968 46.7834 148.935 46.5546C148.918 46.4387 148.904 46.3229 148.887 46.207C148.887 46.1505 148.865 46.0912 148.862 46.0347C148.831 45.6194 148.792 45.204 148.778 44.7887C148.764 44.3733 148.778 43.9693 148.778 43.5596C148.778 43.342 148.809 43.1217 148.826 42.9041C148.826 42.8109 148.848 42.7148 148.851 42.6216C148.849 42.4456 148.869 42.27 148.91 42.0989C148.923 42.0347 148.93 41.9694 148.932 41.9039C148.932 41.8107 148.96 41.7174 148.977 41.6214C148.994 41.5253 148.996 41.4773 149.008 41.4038C149.019 41.3303 149.036 41.2625 149.053 41.1919C149.069 41.1212 149.072 41.1354 149.078 41.1071C149.183 40.5497 149.339 40.0031 149.543 39.474C149.788 38.7722 150.077 38.0862 150.406 37.4199C150.705 36.8028 151.04 36.2046 151.411 35.6286C151.823 35.0099 152.293 34.4327 152.815 33.9051C153.164 33.5455 153.538 33.2121 153.935 32.9077C154.215 32.6958 154.496 32.5008 154.776 32.3002C154.803 32.2843 154.832 32.2719 154.863 32.2635C154.878 32.289 154.891 32.3166 154.899 32.3454C154.899 32.6082 154.899 32.8709 154.899 33.1337C154.899 33.2354 154.913 33.3371 154.919 33.4389C154.919 33.5914 154.935 33.7468 154.941 33.8994C154.941 33.9361 154.941 33.9729 154.941 34.0096C154.966 34.2921 154.994 34.5916 155.019 34.8827C155.036 35.072 155.047 35.2613 155.064 35.4478C155.066 35.6301 155.085 35.8119 155.123 35.9902C155.125 36.0053 155.125 36.0204 155.123 36.0354C155.123 36.4508 155.218 36.8605 155.224 37.2786C155.217 37.3293 155.217 37.3806 155.224 37.4312C155.264 37.6169 155.285 37.8063 155.286 37.9963C155.286 38.1121 155.319 38.228 155.336 38.341C155.372 38.6462 155.4 38.9513 155.451 39.2536C155.496 39.5136 155.566 39.765 155.627 40.0193C155.674 40.1973 155.755 40.3643 155.865 40.511C156.038 40.7735 156.262 40.9976 156.524 41.1693C156.559 41.1892 156.587 41.2185 156.607 41.2539C156.626 41.2894 156.635 41.3295 156.633 41.3699C156.653 41.7485 156.672 42.1271 156.695 42.5001C156.697 42.5579 156.704 42.6155 156.714 42.6724C156.753 42.8733 156.77 43.078 156.765 43.2827C156.76 43.3633 156.767 43.4441 156.784 43.5229C156.833 43.704 156.864 43.8895 156.877 44.0767C156.875 44.1791 156.893 44.2809 156.93 44.3762C156.952 44.4308 156.961 44.4897 156.958 44.5485C156.951 44.6872 156.969 44.8261 157.011 44.9582C157.014 44.9722 157.014 44.9866 157.011 45.0006C157.042 45.2464 157.076 45.4922 157.106 45.738C157.105 45.7597 157.105 45.7814 157.106 45.803L157.233 46.402C157.233 46.4444 157.233 46.4868 157.252 46.532C157.272 46.6393 157.289 46.7467 157.308 46.8541C157.308 46.9049 157.328 46.9558 157.336 47.0067C157.389 47.3966 157.462 47.7836 157.546 48.1679C157.583 48.3318 157.605 48.4985 157.641 48.6624C157.745 49.1257 157.852 49.5891 157.955 50.0525C158.014 50.3152 158.064 50.5837 158.129 50.8436C158.272 51.4087 158.409 51.9907 158.572 52.5643C158.672 52.9373 158.784 53.3074 158.891 53.6804L158.916 53.7651C158.941 53.9036 158.916 53.9375 158.782 53.9912C158.465 54.1155 158.151 54.2483 157.832 54.3669C157.513 54.4856 157.188 54.5873 156.866 54.7003L155.328 55.2428C155.204 55.2852 155.081 55.3248 154.955 55.3615C154.908 55.3672 154.86 55.3672 154.812 55.3615C154.801 55.3275 154.792 55.2925 154.787 55.257C154.782 55.0656 154.753 54.8757 154.7 54.6919C154.688 54.6496 154.684 54.6057 154.686 54.5619C154.693 54.5179 154.693 54.4731 154.686 54.4291C154.628 54.2467 154.6 54.0556 154.605 53.864C154.504 53.6069 154.56 53.3244 154.462 53.0672C154.455 53.0242 154.455 52.9803 154.462 52.9373C154.467 52.7984 154.448 52.6598 154.406 52.5276C154.405 52.5201 154.405 52.5125 154.406 52.505C154.372 52.2224 154.341 51.9568 154.308 51.6799C154.299 51.5895 154.283 51.4878 154.266 51.3889H154.255ZM159.37 42.161C159.361 42.1963 159.361 42.2331 159.37 42.2684C159.417 42.4066 159.44 42.5518 159.44 42.6978C159.471 42.9521 159.518 43.2036 159.563 43.4551C159.591 43.6048 159.625 43.7546 159.656 43.9043C159.829 44.7437 160.155 45.5436 160.617 46.2636C160.917 46.7383 161.253 47.1889 161.622 47.6113C162.009 48.0577 162.407 48.4928 162.835 48.8997C163.334 49.3687 163.813 49.8575 164.351 50.2813C164.746 50.5921 165.135 50.9086 165.539 51.2053C165.919 51.4743 166.312 51.7232 166.718 51.9512C167.074 52.1596 167.442 52.3482 167.819 52.5163C168.114 52.6552 168.416 52.7778 168.724 52.8836C168.984 52.9712 169.256 53.0164 169.525 53.0814C169.565 53.092 169.604 53.1052 169.643 53.1209V53.1548C169.528 53.1548 169.416 53.1237 169.301 53.1181C169.192 53.1179 169.084 53.0988 168.981 53.0616C168.955 53.0495 168.926 53.0437 168.897 53.0446C168.702 53.0335 168.508 52.9993 168.32 52.9429C168.093 52.9062 167.875 52.8271 167.651 52.7706C167.031 52.5932 166.43 52.3527 165.858 52.0529C165.42 51.8396 164.999 51.5941 164.597 51.3183C164.401 51.1798 164.2 51.0357 164.009 50.9058C163.729 50.6882 163.449 50.465 163.188 50.222C162.869 49.9395 162.552 49.6428 162.25 49.3405C161.947 49.0381 161.667 48.7754 161.395 48.4646C160.858 47.8897 160.377 47.2643 159.958 46.597C159.693 46.16 159.472 45.6971 159.3 45.2153C159.193 44.913 159.093 44.6107 159 44.3027C158.955 44.1501 158.936 43.9891 158.905 43.8337C158.905 43.7828 158.883 43.7348 158.871 43.6839L158.829 43.4494C158.832 43.4137 158.832 43.3778 158.829 43.342C158.772 43.1595 158.749 42.968 158.759 42.777C158.762 42.7478 158.762 42.7185 158.759 42.6894C158.7 42.3796 158.676 42.0638 158.689 41.7485V40.0532C158.689 39.9515 158.689 39.847 158.689 39.7453C158.681 39.5994 158.681 39.4532 158.689 39.3073C158.697 39.2518 158.688 39.1953 158.663 39.145C158.639 39.0947 158.6 39.0528 158.552 39.0248C158.49 38.9852 158.426 38.9541 158.361 38.9202C158.007 38.7225 157.694 38.4589 157.437 38.1432C157.243 37.89 157.098 37.6025 157.008 37.2956C156.958 37.1458 156.916 36.9904 156.874 36.835C156.863 36.7856 156.854 36.7356 156.849 36.6853C156.849 36.6203 156.829 36.5553 156.818 36.4903C156.807 36.4254 156.784 36.3039 156.77 36.2078C156.77 36.1711 156.77 36.1343 156.77 36.1004C156.716 35.9172 156.693 35.7263 156.7 35.5353C156.701 35.5137 156.701 35.492 156.7 35.4704C156.638 35.1322 156.611 34.7885 156.619 34.4447C156.598 34.3384 156.598 34.2289 156.619 34.1226C156.647 34.1509 156.675 34.165 156.681 34.1848C156.758 34.5335 156.872 34.8727 157.022 35.1963C157.218 35.6375 157.461 36.0555 157.748 36.4423C157.951 36.7099 158.171 36.9638 158.406 37.2024C158.465 37.2645 158.521 37.3323 158.586 37.3917C158.62 37.419 158.658 37.4426 158.698 37.4623C158.731 37.3295 158.759 37.2108 158.793 37.0667C158.835 37.1091 158.868 37.1261 158.874 37.1543C158.94 37.3368 158.984 37.5265 159.006 37.7194C159.022 37.909 159.048 38.0977 159.084 38.2845C159.118 38.5077 159.137 38.7337 159.151 38.9598C159.157 39.1353 159.177 39.3101 159.21 39.4825C159.231 39.6265 159.24 39.7721 159.235 39.9176C159.232 40.0416 159.247 40.1654 159.28 40.2849C159.301 40.3699 159.31 40.4573 159.308 40.5449C159.296 40.7787 159.313 41.0132 159.359 41.2427C159.362 41.2567 159.362 41.2711 159.359 41.2851C159.311 41.579 159.398 41.8672 159.381 42.161H159.37ZM183.428 42.1356C183.427 41.8521 183.444 41.5689 183.481 41.2879C183.515 41.0506 183.501 40.8076 183.515 40.5646C183.515 40.4714 183.537 40.3782 183.551 40.2821C183.565 40.186 183.568 40.1804 183.571 40.1295C183.571 39.847 183.571 39.5644 183.602 39.2988C183.635 38.875 183.686 38.4512 183.731 38.033C183.731 37.968 183.747 37.9031 183.747 37.8381C183.745 37.7285 183.762 37.6193 183.798 37.516C183.821 37.4466 183.834 37.3743 183.837 37.3012C183.841 37.2127 183.875 37.1282 183.932 37.0611C184.003 37.1592 184.042 37.2764 184.044 37.3973C184.042 37.426 184.049 37.4548 184.064 37.4792C184.083 37.4962 184.108 37.5052 184.134 37.5047C184.154 37.5047 184.17 37.4821 184.184 37.4651C184.417 37.2024 184.644 36.9396 184.876 36.6796C185.299 36.2055 185.648 35.6702 185.913 35.0917L185.955 35.0211C186.017 35.0211 186.011 35.0663 186.011 35.1002C186.011 35.2387 185.989 35.3828 185.98 35.5156C185.972 35.6484 185.963 35.7981 185.952 35.9535C185.941 36.1089 185.924 36.1993 185.907 36.3208C185.897 36.349 185.892 36.3785 185.891 36.4084C185.882 36.6342 185.846 36.8581 185.784 37.0752C185.721 37.4732 185.572 37.8523 185.347 38.1856C185.178 38.3956 184.976 38.5769 184.75 38.7224C184.582 38.8383 184.409 38.9485 184.235 39.053C184.193 39.0747 184.159 39.1083 184.137 39.1495C184.114 39.1908 184.105 39.2378 184.109 39.2847C184.109 39.7537 184.137 40.2228 184.128 40.6974C184.114 41.2625 184.128 41.8078 184.07 42.3616C184.047 42.5424 184.053 42.7261 184.039 42.9098C184.039 42.9973 184.016 43.0821 184.002 43.1697C184.002 43.198 183.983 43.2262 183.983 43.2545C183.965 43.4795 183.933 43.7032 183.888 43.9241C183.874 44.0258 183.84 44.1219 183.817 44.2208C183.694 44.7162 183.524 45.1986 183.31 45.6617C182.941 46.4579 182.46 47.1964 181.882 47.8543C181.426 48.3817 180.945 48.8884 180.439 49.3744C180.094 49.7078 179.747 50.0412 179.391 50.3605C178.763 50.9367 178.07 51.4365 177.327 51.8495C176.877 52.1063 176.409 52.3292 175.926 52.5163C175.621 52.6265 175.307 52.7225 174.996 52.8186C174.845 52.8666 174.691 52.9062 174.537 52.9429C174.411 52.9772 174.282 53.0017 174.153 53.0164C173.906 53.0687 173.656 53.1027 173.405 53.1181C173.36 53.1151 173.315 53.1094 173.27 53.1011C173.367 53.0568 173.469 53.0236 173.573 53.0022C173.716 52.9796 173.856 52.9418 173.99 52.8892C174.465 52.7485 174.924 52.5591 175.36 52.3241C175.705 52.1377 176.055 51.9625 176.394 51.7591C176.798 51.5277 177.189 51.2739 177.565 50.999C178.063 50.6317 178.537 50.239 179.002 49.8293C179.467 49.4196 179.907 48.9647 180.347 48.5183C180.694 48.1651 181.011 47.7837 181.341 47.4163C181.442 47.3033 181.526 47.1734 181.621 47.0519C182.038 46.5183 182.392 45.9381 182.677 45.3227C182.851 44.9521 182.993 44.5674 183.103 44.1727C183.164 44.0084 183.2 43.8362 183.212 43.6613C183.214 43.6252 183.223 43.5897 183.238 43.5568C183.238 43.5285 183.26 43.5003 183.266 43.472C183.299 43.2206 183.336 42.9691 183.361 42.7148C183.357 42.5689 183.379 42.4236 183.425 42.2853C183.439 42.2366 183.443 42.1859 183.439 42.1356H183.428ZM174.447 45.8087H174.405C174.237 45.8256 174.072 45.8397 173.906 45.8623C173.287 45.9288 172.663 45.9514 172.041 45.9302C171.259 45.9302 170.475 45.9302 169.693 45.9302C169.584 45.9302 169.477 45.9047 169.368 45.8934C169.259 45.8821 169.124 45.8652 169.001 45.8595C168.864 45.8615 168.727 45.8434 168.595 45.8058C168.566 45.8017 168.537 45.8017 168.508 45.8058C168.497 45.8064 168.487 45.8097 168.477 45.8156C168.468 45.8214 168.46 45.8294 168.455 45.839C168.45 45.8486 168.447 45.8594 168.447 45.8704C168.447 45.8814 168.45 45.8923 168.455 45.9019C168.477 45.931 168.502 45.9575 168.53 45.981C168.938 46.3438 169.375 46.6717 169.836 46.9614C170.004 47.0632 170.175 47.1564 170.346 47.244L170.503 47.3372C170.506 47.3471 170.506 47.3575 170.505 47.3677C170.503 47.3779 170.5 47.3876 170.494 47.3963C170.488 47.4049 170.481 47.4121 170.472 47.4176C170.464 47.423 170.454 47.4264 170.444 47.4276C170.282 47.4679 170.124 47.5198 169.97 47.583C169.908 47.5989 169.844 47.6093 169.78 47.6141C169.685 47.6141 169.589 47.6141 169.5 47.6424C169.209 47.706 168.908 47.706 168.617 47.6424C168.575 47.6319 168.532 47.6253 168.488 47.6226C168.184 47.6069 167.883 47.5538 167.592 47.4644C167.305 47.3836 167.032 47.2598 166.782 47.0971C166.33 46.8113 165.976 46.3934 165.765 45.8991C165.667 45.6787 165.598 45.4458 165.561 45.2068C165.491 44.7441 165.474 44.275 165.508 43.8082C165.508 43.6048 165.558 43.4042 165.586 43.2008C165.594 43.1756 165.605 43.1518 165.62 43.1301C165.667 43.135 165.714 43.1474 165.757 43.1669C166.228 43.4253 166.73 43.6227 167.25 43.7546C167.48 43.8239 167.714 43.8777 167.951 43.9156C168.393 43.9778 168.833 44.0795 169.281 44.1049C169.578 44.119 169.872 44.1586 170.169 44.184C170.256 44.184 170.343 44.184 170.43 44.184C170.495 44.177 170.561 44.177 170.626 44.184C170.775 44.2147 170.927 44.227 171.08 44.2208C171.36 44.2208 171.64 44.2208 171.92 44.2208C172.2 44.2208 172.455 44.1869 172.721 44.1614L173.606 44.071L173.993 44.0145C174.072 44.0145 174.153 43.9976 174.231 43.9891L174.447 43.9552C174.637 43.9184 174.828 43.8761 175.007 43.8365C175.186 43.7969 175.335 43.78 175.495 43.732C175.811 43.6542 176.121 43.5522 176.422 43.4268C176.652 43.3194 176.879 43.2036 177.105 43.0934L177.178 43.0708C177.226 43.2236 177.259 43.3807 177.276 43.5398C177.302 43.78 177.318 44.0202 177.324 44.2603C177.33 44.5005 177.324 44.6841 177.31 44.8932C177.308 44.9955 177.298 45.0974 177.282 45.1984C177.262 45.3502 177.227 45.4998 177.178 45.6448C177.057 46.0064 176.86 46.3372 176.6 46.6142C176.339 46.8913 176.023 47.1081 175.671 47.2496C175.398 47.3551 175.117 47.4392 174.831 47.5011C174.539 47.5559 174.244 47.5955 173.948 47.6198C173.775 47.6462 173.599 47.6356 173.43 47.5887C173.366 47.5759 173.302 47.5674 173.237 47.5633C172.972 47.5266 172.711 47.4641 172.458 47.3768C172.43 47.3611 172.404 47.3411 172.382 47.3175C172.413 47.285 172.446 47.2548 172.48 47.227C172.623 47.1423 172.76 47.0603 172.915 46.9784C173.397 46.7101 173.854 46.397 174.279 46.0432C174.324 46.0036 174.377 45.9782 174.422 45.9443C174.45 45.9222 174.475 45.8954 174.495 45.8652C174.525 45.8623 174.5 45.803 174.458 45.8002L174.447 45.8087ZM165.88 42.7007C165.906 42.6781 165.914 42.6639 165.925 42.6611C165.952 42.6497 165.98 42.642 166.009 42.6385C166.513 42.582 167.012 42.4972 167.522 42.4888C167.774 42.4888 168.026 42.4549 168.281 42.4436C168.634 42.4436 168.99 42.421 169.346 42.4125H170.236C170.454 42.4109 170.67 42.4308 170.884 42.4718C171.227 42.5326 171.579 42.5326 171.923 42.4718C172.101 42.4407 172.28 42.4237 172.461 42.421C173.063 42.421 173.665 42.421 174.268 42.421C174.548 42.421 174.828 42.4605 175.108 42.4803H175.324L176.038 42.5396L176.385 42.565C176.563 42.5808 176.739 42.6197 176.907 42.6809C176.723 42.7345 176.536 42.7714 176.346 42.7911C176.199 42.8506 176.04 42.8758 175.881 42.8646C175.844 42.8649 175.808 42.8696 175.772 42.8787C175.533 42.9365 175.289 42.9677 175.044 42.9719L174.506 43.0397C174.203 43.0821 173.901 43.0878 173.598 43.1047C173.525 43.1047 173.455 43.1047 173.382 43.1245C173.311 43.1301 173.238 43.1301 173.167 43.1245C173.059 43.113 172.949 43.1216 172.845 43.1499C172.752 43.1674 172.658 43.1749 172.564 43.1725C172.354 43.1725 172.144 43.1725 171.934 43.2036C171.61 43.2403 171.282 43.2346 170.959 43.1867C170.88 43.1749 170.801 43.1702 170.721 43.1725C170.526 43.181 170.33 43.1725 170.136 43.1471C170.093 43.1414 170.05 43.1414 170.007 43.1471C169.847 43.1661 169.685 43.1536 169.531 43.1104C169.481 43.106 169.431 43.106 169.382 43.1104C169.093 43.1141 168.804 43.098 168.516 43.0623C168.29 43.0228 168.054 43.0312 167.824 42.9973C167.557 42.9809 167.291 42.9431 167.029 42.8843C166.986 42.8799 166.943 42.8799 166.9 42.8843C166.865 42.8872 166.829 42.8872 166.794 42.8843C166.531 42.8289 166.265 42.7903 165.998 42.7685C165.959 42.7525 165.923 42.7305 165.892 42.7035L165.88 42.7007ZM183.411 35.4138C183.393 35.7286 183.306 36.0355 183.156 36.3123C183.03 36.568 182.872 36.8064 182.686 37.0215C182.208 37.5832 181.655 38.0741 181.041 38.4795C180.932 38.5473 180.834 38.6377 180.73 38.7168C180.675 38.753 180.636 38.8099 180.621 38.875C180.597 38.9594 180.578 39.0453 180.565 39.1321C180.548 39.313 180.526 39.4938 180.492 39.6746C180.445 39.9233 180.425 40.1804 180.394 40.4318C180.377 40.5562 180.358 40.6777 180.341 40.802C180.341 40.867 180.321 40.9319 180.313 40.9969L180.271 41.2314C180.271 41.2682 180.251 41.3049 180.249 41.3388C180.216 41.6289 180.147 41.9136 180.044 42.1864C179.865 42.7283 179.614 43.2434 179.299 43.7178L179.064 44.0767C179.041 44.1077 179.016 44.1303 178.968 44.1077C178.952 43.8563 178.935 43.602 178.921 43.3505C178.919 43.2628 178.903 43.176 178.873 43.0934C178.852 43.0317 178.841 42.9667 178.842 42.9013C178.845 42.7839 178.826 42.667 178.786 42.5566C178.773 42.5222 178.766 42.486 178.764 42.4492C178.738 42.2025 178.675 41.9614 178.576 41.7344C178.492 41.5349 178.349 41.3663 178.167 41.2512C177.852 41.0549 177.513 40.9011 177.159 40.7935C176.946 40.7285 176.727 40.6777 176.509 40.6324C176.29 40.5872 176.131 40.542 175.948 40.4996C175.878 40.4827 175.806 40.4997 175.733 40.4714C175.52 40.4318 175.31 40.3838 175.094 40.3499C174.878 40.316 174.607 40.2821 174.366 40.2397C174.058 40.186 173.747 40.1634 173.438 40.1323C173.402 40.1232 173.368 40.1099 173.335 40.0928C173.36 40.0645 173.371 40.0448 173.388 40.0363C173.545 39.9459 173.707 39.8639 173.864 39.7707C174.101 39.6406 174.3 39.452 174.444 39.2225C174.485 39.1448 174.509 39.059 174.514 38.9711C174.515 38.9488 174.507 38.927 174.493 38.9102C174.478 38.8934 174.458 38.8828 174.436 38.8807C174.386 38.8737 174.336 38.8737 174.287 38.8807C174.044 38.9485 173.805 39.0332 173.559 39.0898C173.312 39.1463 173.116 39.166 172.895 39.1999L172.702 39.2282C172.655 39.236 172.61 39.2536 172.571 39.2799C172.531 39.3062 172.498 39.3406 172.472 39.3808C172.416 39.4655 172.349 39.5418 172.287 39.6238C172.16 39.7773 171.978 39.8738 171.78 39.8922C171.447 39.9401 171.109 39.8723 170.819 39.7C170.705 39.6359 170.608 39.5436 170.539 39.4316C170.367 39.1587 170.282 38.8393 170.295 38.5162C170.295 37.872 170.295 37.2278 170.295 36.5836C170.295 35.9394 170.295 35.2104 170.295 34.521C170.295 33.7158 170.295 32.9133 170.276 32.1081C170.287 31.6912 170.261 31.2741 170.197 30.8621C170.197 30.8253 170.197 30.7886 170.197 30.7519C170.18 30.54 170.164 30.3309 170.15 30.119C170.127 29.8138 170.113 29.5058 170.082 29.2007C170.065 29.0192 170.036 28.8389 169.996 28.661C169.968 28.5621 169.92 28.4701 169.855 28.3912C169.79 28.3123 169.709 28.2483 169.617 28.2033C169.442 28.1024 169.254 28.0281 169.057 27.9829C168.668 27.9024 168.274 27.8457 167.878 27.8134C167.813 27.8134 167.749 27.7964 167.684 27.788C167.635 27.7745 167.584 27.765 167.533 27.7597C167.214 27.7597 166.903 27.6834 166.583 27.658C166.477 27.658 166.368 27.6269 166.261 27.6156C166.023 27.5958 165.782 27.5845 165.544 27.5619C165.177 27.5224 164.813 27.463 164.443 27.4376C164.231 27.3949 164.015 27.3759 163.799 27.3811C163.374 27.3364 162.946 27.3241 162.519 27.3444C162.431 27.3434 162.346 27.3679 162.272 27.415C162.009 27.5645 161.772 27.7552 161.569 27.9801C161.241 28.3332 160.97 28.7366 160.768 29.1753C160.656 29.4267 160.547 29.681 160.437 29.9353C160.433 29.9492 160.433 29.9638 160.437 29.9777C160.438 29.9985 160.446 30.0184 160.46 30.0342C160.469 30.0385 160.479 30.0407 160.489 30.0407C160.499 30.0407 160.509 30.0385 160.519 30.0342C160.538 30.0252 160.555 30.0116 160.569 29.9946C160.701 29.8691 160.854 29.7669 161.02 29.6923C161.365 29.5222 161.725 29.3851 162.096 29.2826C162.522 29.1576 162.967 29.1107 163.41 29.1442H163.603C163.966 29.1517 164.328 29.1819 164.687 29.2346C164.712 29.2346 164.74 29.2544 164.799 29.2742L164.645 29.3109C164.297 29.3853 163.959 29.502 163.639 29.6584C163.308 29.8227 163 30.0308 162.723 30.2772C162.429 30.5505 162.195 30.8837 162.037 31.2548C162.029 31.2751 162.022 31.2958 162.017 31.3169C162.014 31.3293 162.013 31.3423 162.015 31.3549C162.018 31.3676 162.023 31.3794 162.031 31.3894C162.039 31.3994 162.05 31.4073 162.061 31.4124C162.073 31.4175 162.086 31.4197 162.098 31.4187C162.142 31.415 162.186 31.4055 162.227 31.3904C162.563 31.2713 162.923 31.2383 163.275 31.2943C163.804 31.3857 164.34 31.432 164.877 31.4328C165.494 31.4328 166.11 31.4328 166.726 31.413C166.863 31.4068 167 31.3936 167.135 31.3735C167.451 31.3198 167.774 31.3255 168.088 31.3904C168.109 31.3934 168.131 31.3934 168.152 31.3904C168.163 31.3905 168.174 31.3883 168.183 31.3839C168.193 31.3796 168.202 31.3732 168.209 31.3652C168.216 31.3572 168.221 31.3477 168.225 31.3375C168.228 31.3272 168.229 31.3164 168.228 31.3056C168.219 31.2565 168.203 31.2089 168.18 31.1644C168.051 30.9015 167.879 30.6627 167.67 30.458C167.628 30.4185 167.589 30.3761 167.53 30.3139C167.562 30.3089 167.594 30.3089 167.626 30.3139C167.993 30.4693 168.36 30.6247 168.727 30.7858C168.819 30.8281 168.903 30.8818 168.993 30.9327C169.032 30.9519 169.064 30.9829 169.084 31.0214C169.105 31.0599 169.113 31.104 169.107 31.1474C169.093 31.3593 169.088 31.5712 169.079 31.7831C169.082 31.8189 169.082 31.8548 169.079 31.8905C169.03 32.1349 169.006 32.3841 169.009 32.6336C169.012 32.736 168.998 32.8382 168.967 32.9359C168.952 32.9766 168.944 33.0196 168.942 33.0631C168.941 33.275 168.918 33.4863 168.872 33.6932C168.861 33.7585 168.855 33.8246 168.855 33.8909C168.858 33.9931 168.841 34.0949 168.805 34.1904C168.795 34.2179 168.787 34.2463 168.783 34.2752C168.7 34.7868 168.576 35.2906 168.41 35.7812C168.239 36.301 168.074 36.8237 167.903 37.3436C167.827 37.5725 167.754 37.8013 167.668 38.0274C167.605 38.2107 167.561 38.4001 167.536 38.5925C167.519 38.683 167.524 38.7763 167.55 38.8647C167.576 38.9531 167.622 39.0341 167.684 39.1011C167.781 39.2068 167.889 39.3015 168.007 39.3836C168.34 39.6183 168.698 39.8154 169.074 39.9713L169.172 40.0193C169.172 40.0193 169.189 40.0419 169.197 40.0532C169.197 40.1126 169.133 40.1041 169.096 40.1069C168.951 40.1092 168.806 40.133 168.668 40.1775C168.633 40.1891 168.597 40.1939 168.561 40.1917C168.423 40.1801 168.284 40.2004 168.155 40.251C168.128 40.2623 168.1 40.268 168.071 40.268C167.917 40.268 167.771 40.3132 167.62 40.3301C167.427 40.3556 167.239 40.4064 167.046 40.4347C166.852 40.4629 166.679 40.5166 166.485 40.559C166.292 40.6014 166.16 40.6296 166.001 40.6748C165.569 40.7734 165.156 40.9403 164.777 41.1693C164.498 41.3413 164.297 41.616 164.216 41.935C164.16 42.1008 164.117 42.2708 164.087 42.4436C164.037 42.6858 164.003 42.9313 163.987 43.1782C163.988 43.2296 163.982 43.2809 163.97 43.3307C163.925 43.5156 163.903 43.7055 163.905 43.8958C163.912 43.9297 163.908 43.9648 163.895 43.9966C163.881 44.0283 163.859 44.0552 163.83 44.0738C163.809 44.0562 163.79 44.0363 163.774 44.0145C163.645 43.8026 163.516 43.5907 163.393 43.376C163.137 42.9422 162.939 42.4768 162.802 41.9915C162.733 41.7767 162.682 41.5565 162.65 41.3332C162.642 41.2901 162.631 41.2476 162.617 41.206C162.606 41.1796 162.597 41.1521 162.592 41.1241C162.558 40.898 162.53 40.6748 162.496 40.4516C162.496 40.3669 162.468 40.2793 162.454 40.1945C162.454 40.1662 162.432 40.138 162.429 40.1097C162.418 39.9195 162.392 39.7305 162.351 39.5447C162.339 39.4071 162.314 39.2708 162.278 39.1378C162.264 39.0806 162.258 39.0215 162.261 38.9626C162.259 38.9003 162.245 38.839 162.218 38.7829C162.19 38.7269 162.152 38.6773 162.104 38.6377C161.982 38.5371 161.855 38.4427 161.723 38.3551C161.477 38.1863 161.241 38.0043 161.014 37.8098C160.725 37.555 160.456 37.2772 160.21 36.9791C159.916 36.649 159.686 36.2655 159.532 35.849C159.448 35.616 159.4 35.3708 159.392 35.1228C159.392 34.8601 159.392 34.5973 159.392 34.3345C159.392 34.0718 159.426 33.7525 159.454 33.4615C159.482 33.1704 159.516 32.806 159.549 32.481C159.559 32.3351 159.576 32.1898 159.602 32.0459C159.621 31.9377 159.632 31.8281 159.633 31.7182C159.636 31.6236 159.644 31.5292 159.658 31.4356C159.698 31.2643 159.717 31.0888 159.715 30.9129C159.714 30.8549 159.721 30.797 159.734 30.7406C159.766 30.5906 159.786 30.4386 159.796 30.2857C159.841 30.0285 159.855 29.7686 159.919 29.5143C159.937 29.4432 159.946 29.3701 159.947 29.2968C159.946 29.1725 159.963 29.0487 159.997 28.9294C160.014 28.8579 160.024 28.7851 160.028 28.7119C160.03 28.6616 160.035 28.6115 160.045 28.5621C160.126 28.257 160.081 28.305 160.325 28.1157C160.756 27.7757 161.133 27.3729 161.446 26.9206C161.804 26.4035 162.118 25.861 162.446 25.327C162.642 25.0099 162.876 24.7185 163.143 24.4596C163.443 24.1688 163.831 23.9869 164.244 23.9425C164.524 23.9259 164.805 23.9259 165.085 23.9425C165.236 23.9425 165.387 23.9425 165.541 23.9425C165.614 23.9425 165.684 23.9425 165.757 23.9623C165.88 23.9623 166.001 23.9962 166.124 24.0075C166.505 24.0443 166.892 24.0584 167.27 24.1149C167.584 24.1657 167.906 24.1714 168.217 24.2449C168.376 24.2816 168.544 24.2985 168.707 24.3324C168.94 24.3867 169.166 24.4693 169.379 24.5783C169.839 24.7958 170.267 25.0727 170.704 25.3355C170.895 25.4541 171.088 25.5672 171.265 25.6971C171.305 25.7279 171.354 25.7445 171.405 25.7445C171.455 25.7445 171.504 25.7279 171.545 25.6971C171.954 25.4315 172.363 25.1688 172.777 24.9117C173.132 24.6814 173.518 24.5052 173.923 24.389C174.105 24.3268 174.293 24.2851 174.483 24.2646C174.527 24.26 174.57 24.2515 174.612 24.2392C174.654 24.2392 174.693 24.2138 174.738 24.2081L175.621 24.1092H175.794C176.184 24.0669 176.573 24.0075 176.963 23.9849C177.411 23.9567 177.862 23.951 178.31 23.9482C178.652 23.9687 178.98 24.0905 179.254 24.2985C179.514 24.4743 179.742 24.6931 179.929 24.9456C180.163 25.2626 180.377 25.5938 180.571 25.9373C180.792 26.3131 181.022 26.686 181.279 27.0392C181.61 27.5132 182.023 27.9229 182.498 28.2485C182.591 28.3023 182.668 28.382 182.717 28.4782C182.767 28.5744 182.788 28.683 182.778 28.791C182.774 28.8276 182.774 28.8646 182.778 28.9012L182.879 29.551C182.891 29.6888 182.911 29.8257 182.941 29.9607C182.997 30.1529 182.988 30.3506 183.025 30.5428C183.06 30.7219 183.084 30.9031 183.098 31.0853C183.098 31.187 183.148 31.2859 183.154 31.3876C183.17 31.6419 183.196 31.8962 183.232 32.1476C183.277 32.4528 183.291 32.7579 183.319 33.0659C183.358 33.5378 183.394 34.0096 183.411 34.4786C183.439 34.8035 183.434 35.1115 183.423 35.4167L183.411 35.4138ZM168.612 63.6514C168.556 63.6514 168.505 63.6514 168.458 63.6514L167.981 63.609C167.953 63.609 167.923 63.609 167.895 63.609L167.273 63.5044L166.908 63.4507L166.27 63.3321C166.235 63.3196 166.2 63.3111 166.163 63.3066C165.935 63.2733 165.709 63.2271 165.485 63.1682C165.222 63.1188 164.962 63.0547 164.707 62.9761C164.286 62.8574 163.866 62.7444 163.46 62.589C163.236 62.5042 163.006 62.4364 162.785 62.3488C162.426 62.2104 162.068 62.0663 161.715 61.9194C161.362 61.7724 161.02 61.6368 160.681 61.4616C160.342 61.2865 160.003 61.1282 159.672 60.9502C159.342 60.7722 159.07 60.6253 158.779 60.453C158.353 60.1987 157.938 59.9444 157.518 59.676C157.059 59.3793 156.611 59.0713 156.182 58.7351C155.868 58.4893 155.566 58.2265 155.249 57.9835C154.933 57.7405 154.714 57.5117 154.451 57.2715C154.42 57.2432 154.392 57.2122 154.341 57.1585C154.377 57.1318 154.414 57.1082 154.454 57.0878L157.115 56.0763L159.572 55.1326C159.743 55.0677 159.908 54.9942 160.087 54.9207L160.213 55.0309C160.628 55.4293 161.031 55.839 161.457 56.2261C162.295 56.9997 163.238 57.6486 164.258 58.153C164.538 58.2943 164.833 58.4356 165.127 58.5599C165.625 58.7778 166.142 58.9517 166.67 59.0798C166.981 59.1532 167.292 59.2267 167.603 59.2917C167.816 59.3341 168.032 59.3623 168.245 59.3991L168.362 59.4245C168.375 59.4803 168.383 59.537 168.388 59.594C168.388 59.8766 168.427 60.1591 168.452 60.4247C168.477 60.6903 168.477 61.035 168.488 61.343C168.488 61.4447 168.505 61.5464 168.511 61.6481C168.528 61.8657 168.542 62.0861 168.558 62.3036C168.575 62.5664 168.598 62.8292 168.614 63.0919C168.614 63.236 168.614 63.3745 168.614 63.5299C168.621 63.5709 168.624 63.6126 168.623 63.6542L168.612 63.6514ZM173.691 58.3423C173.564 58.3423 173.517 58.3819 173.506 58.5062C173.472 58.8566 173.416 59.2013 173.416 59.5545C173.416 60.1195 173.399 60.6846 173.388 61.2667C173.388 61.9165 173.368 62.5664 173.354 63.2191C173.354 63.349 173.354 63.4818 173.335 63.6118C173.315 63.7418 173.298 63.7559 173.167 63.7644H173.015H170.774C170.455 63.7644 170.136 63.7644 169.816 63.7644C169.76 63.7644 169.704 63.7474 169.637 63.7389C169.637 63.6457 169.637 63.5666 169.623 63.4875C169.623 63.2756 169.623 63.0637 169.623 62.8518C169.626 62.727 169.611 62.6025 169.581 62.4816C169.566 62.4109 169.566 62.3376 169.581 62.2669C169.595 62.1808 169.595 62.093 169.581 62.0069C169.565 61.9051 169.558 61.8021 169.559 61.699C169.559 61.326 169.559 60.9531 169.559 60.5688C169.559 60.4247 169.542 60.2862 169.533 60.1337C169.531 60.1045 169.531 60.0752 169.533 60.0461C169.57 59.6929 169.477 59.3454 169.494 58.995C169.496 58.9365 169.487 58.8782 169.469 58.8227C169.433 58.7184 169.421 58.6074 169.432 58.4977C169.436 58.4832 169.436 58.4682 169.433 58.4536C169.43 58.4389 169.424 58.4251 169.416 58.4129C169.408 58.4006 169.397 58.3903 169.384 58.3826C169.372 58.3748 169.357 58.3698 169.343 58.3678C169.281 58.3485 169.217 58.3362 169.152 58.331C168.872 58.331 168.62 58.2689 168.354 58.235C168.138 58.2067 167.923 58.1785 167.71 58.1389C167.556 58.1107 167.404 58.0598 167.25 58.0202C167.096 57.9807 166.97 57.9553 166.85 57.9214C166.453 57.8088 166.063 57.67 165.684 57.506C165.243 57.3177 164.813 57.1045 164.396 56.8675C163.813 56.5394 163.26 56.1612 162.743 55.7373C162.42 55.4791 162.119 55.1957 161.841 54.8896C161.514 54.5553 161.227 54.1847 160.984 53.7849C160.939 53.7107 160.916 53.6257 160.916 53.5391C160.916 52.1038 160.916 50.6703 160.916 49.2388C160.907 49.1766 160.921 49.1132 160.956 49.0608C160.998 49.1144 161.031 49.1427 161.054 49.1794C161.261 49.5144 161.488 49.8362 161.734 50.1429C161.981 50.4678 162.225 50.7956 162.482 51.112C163.043 51.8022 163.65 52.4535 164.298 53.0616C164.936 53.6492 165.659 54.1368 166.441 54.5082C166.938 54.7472 167.453 54.9475 167.981 55.1072C168.261 55.1891 168.528 55.2457 168.802 55.3078C168.993 55.353 169.183 55.3926 169.362 55.4321L169.511 55.4519H169.578C169.871 55.5014 170.167 55.5297 170.463 55.5367C170.668 55.5828 170.879 55.598 171.088 55.5819C171.421 55.5819 171.758 55.5819 172.088 55.5819C172.428 55.573 172.767 55.54 173.102 55.483C173.139 55.4802 173.175 55.4802 173.212 55.483C173.494 55.4508 173.775 55.4027 174.052 55.3389C174.782 55.1829 175.494 54.9529 176.178 54.6523C176.819 54.3751 177.422 54.0172 177.974 53.5871C178.401 53.2603 178.798 52.8943 179.159 52.4937C179.282 52.3609 179.414 52.2337 179.534 52.0981C179.887 51.6997 180.226 51.2929 180.54 50.8606C180.73 50.595 180.938 50.3407 181.134 50.0779C181.257 49.9056 181.372 49.7276 181.492 49.5552L181.871 49.0184C181.888 48.9982 181.907 48.9793 181.927 48.9619C181.985 48.9619 181.983 49.0099 181.983 49.0466C181.983 50.0864 181.983 51.1233 181.969 52.1546C181.969 52.6236 181.969 53.0898 181.969 53.5673C181.972 53.6848 181.938 53.8004 181.873 53.8979C181.74 54.0951 181.595 54.2838 181.439 54.463C181.232 54.717 181.011 54.9594 180.778 55.1891C180.167 55.7731 179.495 56.2876 178.772 56.7234C178.425 56.9367 178.067 57.131 177.699 57.3054C177.17 57.559 176.621 57.7697 176.058 57.9355C175.842 57.9976 175.623 58.0428 175.405 58.0881C175.357 58.0881 175.31 58.1191 175.259 58.1304C175.211 58.1474 175.161 58.1587 175.111 58.1643C174.996 58.1687 174.882 58.1887 174.772 58.2237C174.652 58.2518 174.53 58.2698 174.408 58.2774C174.175 58.3206 173.939 58.3433 173.702 58.3452L173.691 58.3423ZM188.118 57.2263C188.022 57.3252 187.927 57.4269 187.837 57.5088C187.465 57.8338 187.095 58.1643 186.717 58.4751C186.437 58.6955 186.157 58.8961 185.877 59.0967C185.521 59.3454 185.165 59.5968 184.795 59.8314C184.212 60.1987 183.621 60.5547 183.011 60.8768C182.4 61.1989 181.854 61.4842 181.254 61.7442C180.91 61.8968 180.56 62.0409 180.209 62.1793C179.859 62.3177 179.467 62.4618 179.089 62.6059C178.851 62.6935 178.604 62.7613 178.363 62.8348C178.083 62.9224 177.783 63.0156 177.489 63.0947C177.324 63.1399 177.147 63.1569 176.982 63.2049C176.671 63.2982 176.343 63.3236 176.032 63.414C175.975 63.4259 175.917 63.4334 175.859 63.4366L175.649 63.4818L175.565 63.5044C175.416 63.5327 175.265 63.5638 175.116 63.5807C174.864 63.6061 174.612 63.6231 174.36 63.6429C174.36 63.6174 174.326 63.6005 174.326 63.5807C174.315 63.4057 174.315 63.2302 174.326 63.0552C174.374 62.6709 174.388 62.2838 174.399 61.8968C174.399 61.7866 174.422 61.6792 174.427 61.569C174.444 61.3006 174.461 61.0293 174.475 60.7609C174.477 60.5417 174.492 60.3229 174.52 60.1054C174.542 59.9472 174.52 59.7833 174.539 59.6223C174.53 59.5467 174.539 59.4698 174.567 59.3991C174.703 59.3558 174.841 59.3246 174.982 59.3058C175.237 59.255 175.492 59.2098 175.747 59.1561C176.002 59.1024 176.217 59.06 176.444 58.9894C177.189 58.7684 177.909 58.4731 178.596 58.1078C179.136 57.8243 179.658 57.5072 180.159 57.1585C180.712 56.7682 181.235 56.3356 181.722 55.8644C181.927 55.661 182.142 55.466 182.336 55.2457C182.441 55.1459 182.551 55.0516 182.666 54.9631C183.47 55.3106 184.263 55.613 185.056 55.9153C185.742 56.1752 186.428 56.4295 187.112 56.6923C187.445 56.8194 187.773 56.9579 188.101 57.0935C188.115 57.0968 188.128 57.1041 188.138 57.1145C188.148 57.1249 188.155 57.138 188.158 57.1523C188.161 57.1665 188.16 57.1814 188.154 57.195C188.149 57.2086 188.14 57.2204 188.129 57.2291L188.118 57.2263ZM193.664 44.0767C193.65 44.2575 193.664 44.444 193.664 44.6248C193.65 44.9328 193.622 45.2379 193.603 45.5431C193.603 45.6391 193.603 45.7352 193.583 45.8256C193.563 45.916 193.552 46.0714 193.538 46.1958C193.538 46.2099 193.538 46.224 193.538 46.2381C193.538 46.5207 193.449 46.8032 193.432 47.1027C193.433 47.1319 193.433 47.1611 193.432 47.1903C193.393 47.3683 193.348 47.5463 193.311 47.7243C193.275 47.9023 193.244 48.0662 193.202 48.2357C193.149 48.4646 193.096 48.6906 193.028 48.9138C192.911 49.2981 192.793 49.6824 192.664 50.0638C192.491 50.5672 192.291 51.0614 192.068 51.5443C191.86 52.0133 191.625 52.4654 191.373 52.9118C191.202 53.2085 191.023 53.4995 190.832 53.7849C190.583 54.1635 190.333 54.5421 190.062 54.9009C189.855 55.1975 189.629 55.4806 189.387 55.7486C189.331 55.8051 189.283 55.8701 189.227 55.9266C189.218 55.9309 189.208 55.9331 189.198 55.9331C189.187 55.9331 189.177 55.9309 189.168 55.9266C189.153 55.9129 189.141 55.8967 189.132 55.8786C189.129 55.8713 189.129 55.8632 189.132 55.8559L189.233 54.7258C189.233 54.689 189.233 54.6523 189.233 54.6184L189.325 52.9231C189.339 52.6745 189.359 52.4259 189.373 52.1772C189.389 51.8127 189.406 51.4483 189.42 51.0838C189.421 50.8417 189.439 50.6 189.473 50.3605C189.479 50.2881 189.479 50.2153 189.473 50.1429C189.473 49.9084 189.473 49.6739 189.473 49.4394C189.468 49.3303 189.482 49.2211 189.515 49.1173C189.533 49.0539 189.54 48.9879 189.535 48.9223C189.535 48.6398 189.535 48.3572 189.535 48.0888C189.535 47.6565 189.555 47.227 189.557 46.7947C189.557 45.7625 189.557 44.7312 189.557 43.7009C189.557 42.9776 189.553 42.2533 189.543 41.5281C189.543 41.3162 189.524 41.1043 189.515 40.8924C189.496 40.4714 189.482 40.0448 189.462 39.6238C189.462 39.4853 189.44 39.3412 189.423 39.166C189.389 39.2624 189.368 39.3633 189.361 39.4655C189.361 39.5983 189.361 39.7283 189.342 39.8611C189.347 39.9118 189.347 39.963 189.342 40.0137C189.291 40.2931 189.273 40.5776 189.289 40.8613C189.302 41.0513 189.284 41.2422 189.235 41.4264C189.228 41.477 189.228 41.5284 189.235 41.579C189.235 41.7965 189.219 42.0169 189.213 42.2345C189.213 42.2514 189.213 42.2656 189.213 42.2797C189.129 42.7713 189.137 43.2686 189.084 43.763C189.039 44.1756 189.017 44.5937 188.983 45.0091C188.983 45.074 188.961 45.139 188.952 45.204C188.938 45.3114 188.927 45.4216 188.913 45.5289C188.913 45.5572 188.913 45.5883 188.913 45.6165C188.874 45.9273 188.832 46.2381 188.793 46.5489C188.793 46.6591 188.77 46.7665 188.756 46.8767C188.742 46.9869 188.728 47.1225 188.711 47.244C188.711 47.2807 188.695 47.3175 188.692 47.3542C188.653 47.761 188.616 48.1679 188.577 48.5748C188.572 48.618 188.562 48.6605 188.549 48.7019C188.536 48.7433 188.526 48.7859 188.521 48.8291C188.507 49.1361 188.473 49.4419 188.42 49.7445C188.403 49.9818 188.367 50.222 188.339 50.4622C188.311 50.7023 188.258 50.9058 188.218 51.1262C188.218 51.177 188.218 51.2279 188.199 51.2787C188.199 51.3861 188.168 51.4935 188.154 51.6037C188.147 51.624 188.142 51.6448 188.137 51.6658C188.106 51.8834 188.076 52.0981 188.042 52.3157C188.022 52.4513 188 52.5982 187.98 52.7254C187.98 52.7903 187.966 52.8553 187.955 52.9203C187.944 52.9853 187.93 53.0814 187.916 53.1605C187.916 53.1803 187.916 53.2 187.899 53.2226C187.885 53.4486 187.855 53.6733 187.809 53.8951C187.8 54.0108 187.779 54.1253 187.748 54.237C187.744 54.2584 187.744 54.2805 187.748 54.302C187.733 54.5338 187.701 54.7642 187.653 54.9914C187.638 55.0964 187.605 55.1979 187.555 55.2909C187.483 55.2757 187.412 55.2569 187.342 55.2344L185.661 54.6241C185.347 54.5082 185.03 54.4037 184.717 54.2935C184.696 54.2875 184.676 54.278 184.658 54.2652C184.546 54.1859 184.418 54.1329 184.283 54.1098C184.034 54.0441 183.792 53.9562 183.56 53.8471C183.565 53.804 183.573 53.7615 183.585 53.7199C183.737 53.3401 183.862 52.9502 183.96 52.553C184.056 52.2083 184.156 51.8664 184.241 51.5189C184.311 51.2505 184.369 50.9821 184.434 50.7108C184.462 50.5978 184.487 50.4848 184.515 50.3718C184.582 50.0892 184.666 49.8377 184.714 49.5637C184.766 49.3788 184.803 49.1898 184.823 48.9986C184.828 48.9551 184.838 48.9124 184.854 48.8714C184.871 48.8008 184.888 48.7302 184.902 48.6595L184.944 48.4674C184.96 48.3968 184.972 48.3261 184.988 48.2527C185.005 48.1792 185.019 48.1114 185.033 48.0408V48.021L185.134 47.3966C185.134 47.3259 185.159 47.2553 185.173 47.1818C185.187 47.1084 185.199 47.0264 185.215 46.9473C185.232 46.8682 185.241 46.8032 185.257 46.7326C185.272 46.6846 185.282 46.6354 185.288 46.5857C185.282 46.483 185.303 46.3804 185.35 46.289C185.351 46.2815 185.351 46.2739 185.35 46.2664C185.35 46.0319 185.439 45.8115 185.448 45.5798C185.443 45.5212 185.452 45.4622 185.473 45.4075C185.524 45.3013 185.543 45.1823 185.526 45.0656C185.521 45.03 185.521 44.9938 185.526 44.9582C185.58 44.7661 185.585 44.5683 185.622 44.3762C185.648 44.2334 185.665 44.0889 185.672 43.9439C185.671 43.8264 185.681 43.709 185.703 43.5935C185.739 43.4218 185.756 43.2464 185.753 43.0708C185.75 42.9252 185.766 42.7798 185.801 42.6385C185.827 42.517 185.837 42.3926 185.832 42.2684C185.829 42.093 185.844 41.9179 185.877 41.7457C185.895 41.6451 185.9 41.5424 185.891 41.4405C185.884 41.372 185.896 41.3031 185.925 41.2406C185.953 41.1781 185.997 41.1243 186.053 41.0845C186.313 40.883 186.532 40.6337 186.7 40.3499C186.873 40.0612 186.978 39.7365 187.008 39.4005C187.008 39.344 187.028 39.2875 187.036 39.2282C187.056 39.1208 187.073 39.0135 187.089 38.9061C187.089 38.8411 187.106 38.7761 187.118 38.7111C187.118 38.7111 187.118 38.6829 187.118 38.6688C187.157 38.3636 187.193 38.0613 187.232 37.7561C187.249 37.6262 187.263 37.4962 187.28 37.3662C187.28 37.2786 187.302 37.1939 187.308 37.1063C187.314 37.0187 187.308 36.9735 187.308 36.9085C187.384 36.4988 187.375 36.0778 187.431 35.6653C187.468 35.4054 187.468 35.1398 187.49 34.877C187.555 34.1057 187.58 33.3315 187.613 32.5545C187.603 32.4656 187.617 32.3755 187.655 32.2946C187.759 32.3539 187.849 32.3991 187.936 32.4556C188.389 32.7608 188.826 33.0829 189.252 33.4276C189.57 33.682 189.871 33.9567 190.154 34.2498C190.511 34.6138 190.844 35.0008 191.151 35.4082C191.671 36.1132 192.103 36.8799 192.437 37.6912C192.664 38.2285 192.851 38.7819 192.998 39.3469C193.093 39.7085 193.194 40.0674 193.278 40.4318C193.346 40.6859 193.389 40.9462 193.407 41.2088C193.409 41.2527 193.416 41.2962 193.426 41.3388C193.446 41.4744 193.46 41.6213 193.479 41.7485C193.479 41.8361 193.51 41.9208 193.524 42.0056C193.539 42.0697 193.548 42.1349 193.552 42.2006C193.547 42.4199 193.561 42.6393 193.594 42.8561C193.596 42.8635 193.596 42.8712 193.594 42.8787C193.575 43.2997 193.698 43.6811 193.664 44.0767ZM196.158 41.4659C196.135 41.8135 196.135 42.1667 196.082 42.5142C196.057 42.6639 196.054 42.8193 196.043 42.9719C196.047 43.0085 196.047 43.0455 196.043 43.0821C196 43.268 195.971 43.4569 195.956 43.6472C195.93 43.8646 195.889 44.0799 195.833 44.2914C195.82 44.3404 195.814 44.3906 195.813 44.4411C195.813 44.5005 195.796 44.557 195.785 44.6135C195.774 44.67 195.751 44.7859 195.729 44.8678C195.69 45.0175 195.659 45.1673 195.628 45.317C195.566 45.6222 195.488 45.9273 195.407 46.2297C195.345 46.4613 195.269 46.6902 195.199 46.9191L195.073 47.3372C195.057 47.3853 195.037 47.4305 195.015 47.4842C195.015 47.4672 194.989 47.4587 194.989 47.4531C195.054 47.0999 195.124 46.7524 195.188 46.3992C195.188 46.3511 195.188 46.2975 195.205 46.2494C195.222 46.2014 195.23 46.0771 195.244 45.9895C195.258 45.9019 195.272 45.8313 195.283 45.7522C195.278 45.709 195.278 45.6653 195.283 45.6222C195.332 45.4767 195.355 45.3236 195.351 45.1701C195.387 44.8678 195.438 44.5655 195.48 44.2631C195.48 44.1614 195.48 44.0597 195.505 43.958C195.53 43.8563 195.533 43.7715 195.544 43.6755C195.555 43.5794 195.572 43.4438 195.58 43.3279C195.589 43.2121 195.594 43.0454 195.608 42.89C195.648 42.5042 195.665 42.1165 195.659 41.7287C195.659 41.4462 195.659 41.1636 195.659 40.8811C195.665 40.8156 195.659 40.7496 195.642 40.6861C195.606 40.5682 195.589 40.4451 195.592 40.3216C195.592 40.153 195.572 39.9849 195.53 39.8215C195.517 39.7715 195.509 39.7205 195.505 39.669C195.509 39.6333 195.509 39.5973 195.505 39.5616C195.388 39.0051 195.213 38.4625 194.984 37.9426C194.705 37.3714 194.382 36.8226 194.02 36.301C193.701 35.8394 193.357 35.3961 192.989 34.9731C192.403 34.3148 191.777 33.6939 191.115 33.1139C190.731 32.7777 190.353 32.4387 189.967 32.1081C189.636 31.8255 189.294 31.543 188.961 31.2604C188.518 30.8931 188.081 30.5202 187.641 30.1529C187.361 29.9184 187.081 29.6895 186.801 29.4606C186.591 29.2883 186.386 29.1159 186.176 28.9492C185.896 28.7345 185.636 28.5311 185.369 28.3163C184.792 27.8473 184.218 27.3783 183.649 26.9036C183.369 26.6634 183.089 26.4092 182.809 26.1549C182.737 26.0825 182.67 26.0061 182.607 25.926C182.145 25.3866 181.713 24.8206 181.316 24.2307C181.067 23.8714 180.797 23.5279 180.506 23.2023C180.076 22.7329 179.537 22.3785 178.938 22.171C178.778 22.1011 178.607 22.0619 178.433 22.0551H178.388C178.178 22.0024 177.961 21.9777 177.744 21.9817C177.268 21.935 176.789 21.935 176.313 21.9817C176.046 22.0033 175.781 22.0449 175.52 22.106C175.371 22.1399 175.22 22.1682 175.074 22.2049C174.397 22.3722 173.751 22.6478 173.161 23.0214C172.791 23.2644 172.43 23.5215 172.071 23.7787C171.898 23.903 171.741 24.0443 171.576 24.1742C171.528 24.2107 171.478 24.2447 171.427 24.2759C171.323 24.1997 171.225 24.129 171.13 24.0499C170.606 23.6217 170.05 23.2353 169.466 22.8943C169.018 22.6386 168.544 22.4339 168.051 22.284C167.627 22.158 167.195 22.0636 166.757 22.0015C166.555 21.9761 166.353 21.9619 166.149 21.9591C165.903 21.9591 165.656 21.9449 165.41 21.9393H165.365C165.085 21.9393 164.805 21.9393 164.541 21.9873C164.117 22.0399 163.703 22.1571 163.314 22.3349C162.742 22.6093 162.246 23.0229 161.872 23.5385C161.477 24.0612 161.087 24.5896 160.692 25.1123C160.445 25.4376 160.18 25.748 159.897 26.0418C159.771 26.1746 159.636 26.2961 159.499 26.4148C159.115 26.7397 158.734 27.0675 158.342 27.3811C157.95 27.6947 157.591 27.9462 157.221 28.2287C156.852 28.5113 156.468 28.8277 156.101 29.1272C155.734 29.4267 155.395 29.6923 155.045 29.9749L153.876 30.9242C153.467 31.2548 153.056 31.5769 152.652 31.9131C152.092 32.3765 151.532 32.8427 150.985 33.3258C150.563 33.6937 150.163 34.0861 149.786 34.5012C149.111 35.2373 148.51 36.0389 147.991 36.8944C147.622 37.4993 147.333 38.1499 147.131 38.8298C147.086 38.9909 147.052 39.1547 147.022 39.3186C146.964 39.5596 146.922 39.8041 146.895 40.0504C146.853 40.3311 146.826 40.6142 146.817 40.898C146.817 41.1806 146.8 41.4829 146.797 41.7739C146.797 42.0226 146.797 42.2712 146.817 42.5198C146.837 42.7685 146.853 43.0312 146.87 43.2855C146.867 43.3373 146.867 43.3892 146.87 43.4409C146.915 43.7715 146.929 44.1077 146.96 44.444C146.979 44.6587 147.005 44.8763 147.03 45.0938C147.055 45.3114 147.108 45.5685 147.15 45.8058C147.16 45.8561 147.166 45.9072 147.167 45.9584C147.173 46.0966 147.193 46.2339 147.226 46.3681C147.258 46.5257 147.281 46.6852 147.293 46.8456C147.293 46.8626 147.293 46.8823 147.274 46.9106C147.251 46.8936 147.226 46.8852 147.22 46.8682C147.184 46.7354 147.15 46.6026 147.114 46.4698C147.078 46.337 147.024 46.1336 146.982 45.9641C146.94 45.7945 146.909 45.6391 146.876 45.4753C146.842 45.3114 146.806 45.1927 146.778 45.0514C146.762 44.937 146.739 44.8237 146.708 44.7124C146.632 44.5005 146.671 44.2744 146.582 44.0682C146.567 44.0265 146.562 43.9822 146.565 43.9382C146.572 43.8215 146.553 43.7047 146.509 43.5963C146.5 43.5756 146.495 43.5537 146.492 43.5314C146.461 43.2206 146.433 42.9069 146.402 42.5961C146.401 42.5306 146.393 42.4653 146.38 42.4012C146.347 42.2586 146.33 42.1126 146.33 41.9661C146.285 41.1778 146.33 40.3866 146.33 39.5955C146.33 39.5008 146.338 39.4062 146.355 39.313C146.391 39.1268 146.408 38.9375 146.408 38.7479C146.403 38.6162 146.419 38.4845 146.456 38.358C146.471 38.2941 146.48 38.2287 146.481 38.163C146.48 38.0019 146.505 37.8416 146.554 37.6883C146.566 37.6461 146.57 37.6022 146.568 37.5584C146.567 37.4413 146.585 37.325 146.621 37.2137C146.639 37.158 146.648 37.0999 146.649 37.0413C146.652 36.9244 146.671 36.8085 146.705 36.6966C146.719 36.6399 146.728 36.5823 146.733 36.5242C146.733 36.4536 146.758 36.3801 146.772 36.3095C146.786 36.2389 146.795 36.2417 146.8 36.205C146.823 35.9733 146.901 35.7501 146.943 35.524C146.974 35.3573 147.022 35.1991 147.055 35.0352C147.106 34.7922 147.181 34.5577 147.248 34.3204C147.316 34.0831 147.366 33.9135 147.428 33.7129C147.54 33.3654 147.646 33.0179 147.764 32.6732C147.926 32.1928 148.113 31.7212 148.324 31.2604C148.599 30.6561 148.916 30.0717 149.271 29.5115C149.568 29.0425 149.856 28.5706 150.156 28.0988C150.436 27.6778 150.717 27.2511 150.997 26.8443C151.358 26.3046 151.736 25.7763 152.064 25.2168C152.316 24.7902 152.591 24.3692 152.846 23.951C153.159 23.4255 153.439 22.8802 153.708 22.3292C153.904 21.9308 154.101 21.5324 154.285 21.1284C154.524 20.6029 154.75 20.0717 154.98 19.5461C155.064 19.3597 155.145 19.1704 155.23 18.9811C155.262 18.9115 155.297 18.8436 155.336 18.7776C155.362 18.7746 155.388 18.7746 155.414 18.7776L155.947 18.8935L156.227 18.9415L156.395 18.9754C156.436 18.9893 156.478 19.0007 156.521 19.0093C156.665 19.0226 156.809 19.0471 156.95 19.0828C157.168 19.1252 157.395 19.1365 157.613 19.1845C157.832 19.2325 158.07 19.2551 158.3 19.2862L158.709 19.3399L158.967 19.3738C158.995 19.3738 159.023 19.3738 159.053 19.3907L160.025 19.4925C160.09 19.4925 160.154 19.4925 160.219 19.5122C160.549 19.5716 160.883 19.5829 161.213 19.6111C161.446 19.6309 161.675 19.6563 161.905 19.6789L162.241 19.71C162.238 19.746 162.23 19.7812 162.216 19.8146C162.149 19.9087 162.079 20.0029 162.006 20.0971L160.908 21.4731C160.715 21.7217 160.533 21.976 160.348 22.2218C160.163 22.4677 159.894 22.7869 159.667 23.0469C159.59 23.1303 159.526 23.2257 159.479 23.3294C159.518 23.317 159.555 23.3009 159.591 23.2814L160.087 22.8519L160.334 22.6372C161.082 22.0128 161.793 21.346 162.488 20.6594C162.65 20.5011 162.796 20.3288 162.953 20.1649C163.031 20.0802 163.121 20.0039 163.197 19.9163C163.227 19.8799 163.267 19.8525 163.312 19.8371C163.357 19.8217 163.405 19.8188 163.452 19.8287C163.538 19.8287 163.625 19.8541 163.709 19.8626C163.79 19.8668 163.87 19.8668 163.95 19.8626C164.095 19.8578 164.24 19.8702 164.382 19.8993C164.489 19.9141 164.598 19.9216 164.707 19.9219L165.267 19.9445C165.404 19.9445 165.547 19.9445 165.681 19.9445C165.816 19.9445 165.911 19.9643 166.026 19.9728C166.141 19.9813 166.2 19.9926 166.287 19.9954L168.068 20.0208C168.111 20.015 168.154 20.015 168.197 20.0208C168.367 20.0598 168.541 20.075 168.715 20.066C169.079 20.066 169.441 20.066 169.805 20.066C170.108 20.066 170.413 20.0858 170.718 20.0858C171.435 20.0858 172.153 20.0858 172.873 20.066C173.279 20.066 173.685 20.066 174.091 20.066C174.155 20.0773 174.22 20.0773 174.284 20.066C174.446 20.0256 174.614 20.0103 174.78 20.0208C175.018 20.0208 175.259 20.0208 175.497 20.0208C175.666 20.0208 175.831 20.001 175.996 19.9954H176.411C176.584 20.0081 176.759 19.9967 176.929 19.9615C177.044 19.9416 177.16 19.9359 177.276 19.9445C177.61 19.9445 177.943 19.9445 178.276 19.9276C178.319 19.9318 178.362 19.9318 178.405 19.9276C178.648 19.889 178.893 19.8673 179.139 19.8626C179.204 19.8522 179.27 19.8592 179.331 19.8831C179.392 19.9069 179.446 19.9466 179.487 19.9982C179.691 20.2158 179.901 20.4277 180.111 20.6396C180.596 21.1256 181.097 21.5889 181.616 22.0354C182.134 22.4818 182.61 22.883 183.109 23.3125C183.145 23.3407 183.176 23.3916 183.252 23.3661C183.13 23.1874 182.991 23.0209 182.837 22.8689C182.694 22.7022 182.557 22.527 182.425 22.3575C182.294 22.1879 182.145 22.0156 182.016 21.8432L181.616 21.3262L181.209 20.8119C181.075 20.6368 180.946 20.4616 180.814 20.2864C180.671 20.1177 180.541 19.9382 180.425 19.7496C180.465 19.7332 180.506 19.72 180.548 19.71C180.641 19.71 180.736 19.71 180.828 19.71C181.054 19.7106 181.278 19.6927 181.501 19.6563C181.537 19.6536 181.574 19.6536 181.61 19.6563C181.991 19.6224 182.375 19.5942 182.756 19.5518C183.058 19.5207 183.361 19.4727 183.661 19.4331C183.747 19.4331 183.834 19.4331 183.921 19.4105L184.285 19.3597C184.308 19.3597 184.327 19.3597 184.35 19.3427C184.599 19.3116 184.854 19.2919 185.101 19.2438C185.36 19.214 185.617 19.1697 185.871 19.111C185.9 19.1081 185.929 19.1081 185.958 19.111C186.202 19.0846 186.444 19.0383 186.681 18.9726C186.821 18.9415 186.961 18.9189 187.106 18.8935C187.176 18.8935 187.213 18.9217 187.238 18.9811C187.356 19.2636 187.476 19.5151 187.591 19.7835C187.952 20.6311 188.322 21.4787 188.711 22.301C188.815 22.5157 188.922 22.7332 189.031 22.948C189.614 24.0754 190.269 25.1636 190.992 26.2057C191.406 26.8132 191.81 27.4291 192.219 28.0423C192.392 28.305 192.569 28.5621 192.737 28.8277C192.999 29.2402 193.255 29.6565 193.507 30.0766C193.787 30.5463 194.028 31.0387 194.227 31.5486C194.426 32.0459 194.614 32.5432 194.788 33.0489C195.009 33.7073 195.213 34.3684 195.382 35.0437C195.492 35.4807 195.595 35.9215 195.693 36.366C195.74 36.5723 195.751 36.787 195.807 36.9876C195.863 37.1882 195.858 37.4538 195.925 37.677C195.94 37.7411 195.949 37.8063 195.953 37.872C195.97 37.9822 195.984 38.0895 196.001 38.1969C196.001 38.2619 196.023 38.3269 196.026 38.3919C196.032 38.5236 196.047 38.6548 196.071 38.7846C196.099 38.9626 196.099 39.1463 196.11 39.3299C196.11 39.4401 196.11 39.5475 196.132 39.6577C196.136 39.716 196.136 39.7745 196.132 39.8328C196.114 39.9337 196.114 40.0371 196.132 40.138C196.137 40.1736 196.137 40.2097 196.132 40.2454C196.169 40.607 196.183 41.0337 196.158 41.4575V41.4659Z" fill="#8A1538"/>
<path d="M89.5317 35.3884C94.8618 35.3884 97.5277 32.3171 97.5296 26.1746V7.24414H93.6077V26.4854C93.6077 30.3544 92.3648 32.2889 89.8791 32.2889C87.1487 32.2889 85.7835 30.3544 85.7835 26.4854C85.7969 24.5304 86.0797 22.5867 86.6239 20.7102L82.5535 21.4731C82.077 23.222 81.8367 25.0277 81.8391 26.8414C81.8391 32.5394 84.4033 35.3884 89.5317 35.3884Z" fill="black"/>
<path d="M109.069 23.0755L104.712 7.04395L100.807 7.58926L105.077 23.0755H109.069Z" fill="black"/>
<path d="M102.031 28.4691H117.694H118.145H126.143H126.476H134.256V14.3193H130.323V25.3385H126.476H126.143H118.145H117.694H115.187V7.25H111.254V25.3385H102.031V28.4691Z" fill="black"/>
<path d="M128.619 31.5094C128.33 31.8003 128.133 32.1713 128.052 32.5753C127.972 32.9794 128.013 33.3983 128.169 33.7792C128.325 34.1601 128.589 34.4857 128.929 34.7149C129.268 34.9441 129.667 35.0665 130.076 35.0666C130.485 35.0678 130.885 34.9462 131.226 34.7173C131.566 34.4883 131.832 34.1624 131.988 33.781C132.144 33.3995 132.184 32.9798 132.103 32.5753C132.022 32.1708 131.824 31.7998 131.533 31.5094C131.343 31.3143 131.117 31.1602 130.866 31.0567C130.616 30.9532 130.347 30.9025 130.076 30.9076C129.806 30.9043 129.537 30.9558 129.287 31.0592C129.037 31.1626 128.81 31.3157 128.619 31.5094Z" fill="black"/>
<path d="M15.3403 58.6732C15.1919 58.6704 15.0445 58.6982 14.9072 58.7551C14.7699 58.8119 14.6456 58.8966 14.5419 59.0037C14.4348 59.109 14.3496 59.2349 14.2915 59.3739C14.2333 59.513 14.2034 59.6623 14.2034 59.8132C14.2034 59.9641 14.2333 60.1135 14.2915 60.2525C14.3496 60.3915 14.4348 60.5174 14.5419 60.6227C14.6446 60.7313 14.7687 60.8168 14.9062 60.8738C15.0438 60.9307 15.1917 60.9578 15.3403 60.9533C15.4899 60.9553 15.6383 60.9271 15.7769 60.8703C15.9154 60.8135 16.0413 60.7293 16.1471 60.6227C16.2584 60.5192 16.3468 60.3933 16.4067 60.2531C16.4665 60.1129 16.4964 59.9616 16.4945 59.809C16.4976 59.6558 16.4682 59.5037 16.4082 59.3629C16.3483 59.2221 16.2593 59.0958 16.1471 58.9924C16.0404 58.8878 15.9141 58.8058 15.7756 58.7509C15.6371 58.6961 15.4891 58.6697 15.3403 58.6732Z" fill="black"/>
<path d="M25.2711 58.6731C25.1243 58.6698 24.9784 58.6975 24.8429 58.7545C24.7073 58.8114 24.585 58.8963 24.4839 59.0037C24.3811 59.1061 24.2999 59.2285 24.2455 59.3636C24.1911 59.4986 24.1645 59.6434 24.1674 59.7892C24.1623 59.9394 24.1878 60.0891 24.2422 60.229C24.2967 60.369 24.3789 60.4962 24.4839 60.6029C24.5863 60.7094 24.7089 60.7942 24.8443 60.852C24.9798 60.9099 25.1254 60.9397 25.2725 60.9397C25.4196 60.9397 25.5652 60.9099 25.7007 60.852C25.8362 60.7942 25.9587 60.7094 26.0611 60.6029C26.1672 60.499 26.2508 60.374 26.3067 60.2359C26.3626 60.0978 26.3897 59.9496 26.3861 59.8005C26.3904 59.6496 26.3629 59.4996 26.3055 59.3603C26.248 59.221 26.1618 59.0956 26.0527 58.9924C25.9496 58.89 25.8275 58.8091 25.6934 58.7543C25.5593 58.6995 25.4158 58.6719 25.2711 58.6731Z" fill="black"/>
<path d="M28.3722 58.6732C28.2238 58.6704 28.0764 58.6983 27.9391 58.7552C27.8018 58.812 27.6774 58.8967 27.5738 59.0038C27.4678 59.1044 27.3839 59.2263 27.3274 59.3616C27.271 59.4968 27.2433 59.6425 27.246 59.7893C27.246 60.089 27.3641 60.3765 27.5742 60.5885C27.7844 60.8004 28.0694 60.9195 28.3666 60.9195C28.5127 60.9221 28.6576 60.8929 28.7915 60.8339C28.9254 60.7749 29.0452 60.6875 29.1426 60.5776C29.2468 60.4726 29.3289 60.3473 29.3838 60.2094C29.4387 60.0715 29.4652 59.9238 29.4619 59.7752C29.4655 59.6274 29.439 59.4805 29.384 59.3434C29.3291 59.2064 29.2469 59.0822 29.1426 58.9784C29.041 58.878 28.9205 58.7992 28.7882 58.7468C28.6558 58.6943 28.5143 58.6693 28.3722 58.6732Z" fill="black"/>
<path d="M52.1447 44.4469C52.2961 44.4504 52.4467 44.4229 52.5873 44.3661C52.7279 44.3093 52.8556 44.2243 52.9627 44.1163C53.0721 44.0136 53.1588 43.8888 53.2172 43.7501C53.2756 43.6113 53.3044 43.4617 53.3017 43.311C53.3057 43.1572 53.2777 43.0043 53.2193 42.8621C53.1609 42.72 53.0734 42.5918 52.9627 42.486C52.8565 42.376 52.7292 42.2889 52.5886 42.2301C52.448 42.1714 52.2969 42.1421 52.1447 42.1441C51.9954 42.1421 51.8473 42.1715 51.7098 42.2303C51.5724 42.2892 51.4486 42.3763 51.3463 42.486C51.2397 42.5943 51.156 42.7232 51.1002 42.865C51.0443 43.0068 51.0175 43.1585 51.0214 43.311C51.0214 43.6108 51.1394 43.8983 51.3496 44.1102C51.5597 44.3222 51.8447 44.4412 52.1419 44.4412L52.1447 44.4469Z" fill="black"/>
<path d="M62.3248 55.0962H57.781C57.8707 54.209 57.9155 53.4358 57.9155 52.7765C57.9155 50.7045 57.4346 49.1769 56.4728 48.1937C55.4568 47.1445 53.8264 46.6199 51.5816 46.6199C50.7464 46.6137 49.9119 46.6723 49.0856 46.7951V48.3151C49.8595 48.2159 50.639 48.1678 51.4191 48.1711C53.0887 48.1711 54.2821 48.5628 54.9993 49.3464C55.6679 50.0829 56.0022 51.2762 56.0022 52.9263C55.9934 53.6507 55.9457 54.3742 55.8593 55.0934H44.5642C45.5129 54.178 45.9873 52.9056 45.9873 51.2762C45.9873 49.7561 45.6259 48.5798 44.9031 47.7472C44.172 46.8996 43.1411 46.4786 41.802 46.4786C40.554 46.4749 39.3437 46.9094 38.3787 47.7077C37.2551 48.6436 36.4419 49.9035 36.048 51.3186H36.0256C36.1886 50.0634 36.2644 48.7983 36.2525 47.5325V41.7432H34.3279V55.0962H28.4731V46.7046H26.5513V55.0962H21.4781V46.7046H19.5535V55.0962H15.9846C13.8779 55.0962 12.3913 54.6941 11.5248 53.8898C10.7404 53.1533 10.3482 51.9458 10.3482 50.2675C10.3309 49.0057 10.6042 47.7571 11.1466 46.6199L9.0988 46.9815C8.61498 48.0868 8.37781 49.2857 8.40406 50.4936C8.40406 52.5561 8.96434 54.0828 10.0849 55.0736C11.2689 56.119 13.1571 56.6417 15.7493 56.6417H64.2466V41.7432H62.3248V55.0962ZM40.2893 55.0962H36.2273C36.3641 53.3759 36.9308 51.7185 37.8745 50.2788C38.8867 48.7719 40.0698 48.0185 41.4238 48.0185C43.1439 48.0185 44.0039 49.1534 44.0039 51.4231C44.0039 53.804 42.7657 55.0284 40.2893 55.0962Z" fill="black"/>
<path d="M70.1378 41.7432H68.2161V56.6417H70.1378V41.7432Z" fill="black"/>
<path d="M92.3052 53.9887C91.8846 53.6783 91.5455 53.2689 91.3175 52.7961C91.0895 52.3234 90.9794 51.8017 90.997 51.2763C90.9741 50.8372 91.0392 50.398 91.1884 49.9848C91.3376 49.5717 91.5679 49.1932 91.8654 48.8718C92.159 48.578 92.5096 48.3486 92.8953 48.1979C93.2809 48.0471 93.6933 47.9784 94.1065 47.9959C94.9615 47.9885 95.8083 48.1638 96.5913 48.5101L96.9499 46.942C96.0771 46.6278 95.1564 46.471 94.2297 46.4786C92.5713 46.4786 91.2752 46.9637 90.3414 47.9338C89.91 48.3883 89.5736 48.9257 89.3522 49.5139C89.1308 50.1022 89.029 50.7294 89.0528 51.3582C89.0528 53.174 89.7998 54.4191 91.2939 55.0934H85.9433C85.8817 52.6673 85.299 50.7517 84.1952 49.3465C83.1457 48.0129 81.4919 46.9919 79.234 46.2837L78.7522 47.9338C80.5936 48.4988 81.9299 49.3521 82.7609 50.4936C83.592 51.6351 84.0187 53.1693 84.0412 55.0963H77.3179V56.6446H98.2889V55.0963H96.5689C94.6938 55.0963 93.2726 54.7271 92.3052 53.9887Z" fill="black"/>
<path d="M130.196 46.4786C128.532 46.4786 127.225 46.9947 126.275 48.027C125.383 49.0098 124.909 50.3064 124.955 51.6379C124.955 53.3576 125.473 54.5471 126.51 55.2064C126.11 55.1248 125.702 55.0869 125.294 55.0934H121.633C121.728 53.8898 121.778 52.8556 121.778 51.9854C121.798 49.9622 121.543 47.9458 121.019 45.9926L119.159 46.3373C119.637 48.2424 119.87 50.2013 119.854 52.1662C119.854 53.1455 119.796 54.1239 119.68 55.0962H118.994C117.8 55.0962 117.008 54.9521 116.61 54.6639C116.162 54.3277 115.935 53.6213 115.935 52.5477V47.1285H114.063V51.8441C114.063 54.1045 113.344 55.2347 111.906 55.2347C111.141 55.2347 110.639 54.9352 110.402 54.3362C110.23 53.9086 110.145 53.0666 110.147 51.8102V47.9761H108.222V52.2143C108.222 53.2992 108.053 54.0593 107.713 54.4944C107.391 54.8994 106.842 55.1019 106.065 55.1019H103.169V41.7432H101.247V56.6417H106.065C107.531 56.6417 108.465 56.0842 108.867 54.9691C109.203 56.1821 110.107 56.7877 111.579 56.7858C113.224 56.7858 114.277 56.1737 114.738 54.9493C114.87 55.2567 115.062 55.534 115.303 55.7647C115.544 55.9953 115.828 56.1745 116.139 56.2914C116.748 56.5268 117.72 56.6436 119.055 56.6417H134.676V51.2141C134.676 48.059 133.183 46.4805 130.196 46.4786ZM132.785 55.0962H130.709C128.171 55.0962 126.902 53.9058 126.902 51.5249C126.902 50.4568 127.182 49.612 127.742 48.982C128.029 48.6589 128.383 48.4043 128.78 48.2367C129.176 48.0691 129.605 47.9926 130.034 48.0128C131.877 48.0128 132.798 49.1892 132.796 51.5418L132.785 55.0962Z" fill="black"/>
</svg>
